<svg
    xmlns="http://www.w3.org/2000/svg"
    version="1.1"
    xmlns:xlink="http://www.w3.org/1999/xlink"
    style="font-size: 10pt; overflow: visible;"
    viewBox="370.85980224609375 -303.6957702636719 546.164306640625 122.37736511230469"
>
    <defs>
        <symbol id="path_sinusoidal-voltage-source">
            <g stroke="#000" stroke-miterlimit="10" stroke-width=".4">
                <g fill="currentFill" stroke-width="1.06267" class="fillable">
                    <path
                        d="M16.40544.53136c-8.7671 0-15.87408 7.10697-15.87408 15.87408s7.10697 15.87408 15.87408 15.87408 15.87408-7.10697 15.87408-15.87408-7.10697-15.87408-15.87408-15.87408Zm0 15.87408"
                    />
                    <path
                        fill="none"
                        d="M16.40544 24.34247c-2.03185-1.29373-3.96852-2.5319-3.96852-3.96851 0-1.43659 1.93664-2.67477 3.96852-3.96852 2.03184-1.29373 3.96852-2.5319 3.96852-3.96852 0-1.43658-1.93666-2.67475-3.96852-3.96851"
                    />
                </g>
            </g>
        </symbol>
        <path
            id="MJX-237-TEX-N-69"
            d="M69 609Q69 637 87 653T131 669Q154 667 171 652T188 609Q188 579 171 564T129 549Q104 549 87 564T69 609ZM247 0Q232 3 143 3Q132 3 106 3T56 1L34 0H26V46H42Q70 46 91 49Q100 53 102 60T104 102V205V293Q104 345 102 359T88 378Q74 385 41 385H30V408Q30 431 32 431L42 432Q52 433 70 434T106 436Q123 437 142 438T171 441T182 442H185V62Q190 52 197 50T232 46H255V0H247Z"
        />
        <path
            id="MJX-237-TEX-N-6E"
            d="M41 46H55Q94 46 102 60V68Q102 77 102 91T102 122T103 161T103 203Q103 234 103 269T102 328V351Q99 370 88 376T43 385H25V408Q25 431 27 431L37 432Q47 433 65 434T102 436Q119 437 138 438T167 441T178 442H181V402Q181 364 182 364T187 369T199 384T218 402T247 421T285 437Q305 442 336 442Q450 438 463 329Q464 322 464 190V104Q464 66 466 59T477 49Q498 46 526 46H542V0H534L510 1Q487 2 460 2T422 3Q319 3 310 0H302V46H318Q379 46 379 62Q380 64 380 200Q379 335 378 343Q372 371 358 385T334 402T308 404Q263 404 229 370Q202 343 195 315T187 232V168V108Q187 78 188 68T191 55T200 49Q221 46 249 46H265V0H257L234 1Q210 2 183 2T145 3Q42 3 33 0H25V46H41Z"
        />
        <path
            id="MJX-237-TEX-I-1D463"
            d="M173 380Q173 405 154 405Q130 405 104 376T61 287Q60 286 59 284T58 281T56 279T53 278T49 278T41 278H27Q21 284 21 287Q21 294 29 316T53 368T97 419T160 441Q202 441 225 417T249 361Q249 344 246 335Q246 329 231 291T200 202T182 113Q182 86 187 69Q200 26 250 26Q287 26 319 60T369 139T398 222T409 277Q409 300 401 317T383 343T365 361T357 383Q357 405 376 424T417 443Q436 443 451 425T467 367Q467 340 455 284T418 159T347 40T241 -11Q177 -11 139 22Q102 54 102 117Q102 148 110 181T151 298Q173 362 173 380Z"
        />
        <symbol id="path_american-resistor">
            <g
                fill="none"
                stroke="#000"
                stroke-miterlimit="10"
                stroke-width=".4"
            >
                <path
                    stroke-linejoin="bevel"
                    stroke-width="1.06267"
                    d="m.53136 8.46838 4.05887-7.93703 7.05509 15.87407 7.05508-15.87407 7.05508 15.87407 7.05509-15.87407 7.05509 15.87407 4.05887-7.93704"
                />
            </g>
        </symbol>
        <path
            id="MJX-238-TEX-I-1D454"
            d="M311 43Q296 30 267 15T206 0Q143 0 105 45T66 160Q66 265 143 353T314 442Q361 442 401 394L404 398Q406 401 409 404T418 412T431 419T447 422Q461 422 470 413T480 394Q480 379 423 152T363 -80Q345 -134 286 -169T151 -205Q10 -205 10 -137Q10 -111 28 -91T74 -71Q89 -71 102 -80T116 -111Q116 -121 114 -130T107 -144T99 -154T92 -162L90 -164H91Q101 -167 151 -167Q189 -167 211 -155Q234 -144 254 -122T282 -75Q288 -56 298 -13Q311 35 311 43ZM384 328L380 339Q377 350 375 354T369 368T359 382T346 393T328 402T306 405Q262 405 221 352Q191 313 171 233T151 117Q151 38 213 38Q269 38 323 108L331 118L384 328Z"
        />
        <path
            id="MJX-238-TEX-I-1D445"
            d="M230 637Q203 637 198 638T193 649Q193 676 204 682Q206 683 378 683Q550 682 564 680Q620 672 658 652T712 606T733 563T739 529Q739 484 710 445T643 385T576 351T538 338L545 333Q612 295 612 223Q612 212 607 162T602 80V71Q602 53 603 43T614 25T640 16Q668 16 686 38T712 85Q717 99 720 102T735 105Q755 105 755 93Q755 75 731 36Q693 -21 641 -21H632Q571 -21 531 4T487 82Q487 109 502 166T517 239Q517 290 474 313Q459 320 449 321T378 323H309L277 193Q244 61 244 59Q244 55 245 54T252 50T269 48T302 46H333Q339 38 339 37T336 19Q332 6 326 0H311Q275 2 180 2Q146 2 117 2T71 2T50 1Q33 1 33 10Q33 12 36 24Q41 43 46 45Q50 46 61 46H67Q94 46 127 49Q141 52 146 61Q149 65 218 339T287 628Q287 635 230 637ZM630 554Q630 586 609 608T523 636Q521 636 500 636T462 637H440Q393 637 386 627Q385 624 352 494T319 361Q319 360 388 360Q466 361 492 367Q556 377 592 426Q608 449 619 486T630 554Z"
        />
        <symbol id="node_ground">
            <g
                fill="none"
                stroke="#000"
                stroke-miterlimit="10"
                stroke-width=".4"
            >
                <path stroke-width=".53134" d="M8.46839.30374v15.8739" />
                <path
                    stroke-width="1.06267"
                    d="M.53135 16.17763h15.87407m-13.22826 2.64563h10.58245m-8.59829 2.6458h6.61413"
                />
            </g>
        </symbol>
        <path
            id="MJX-239-TEX-I-1D43F"
            d="M228 637Q194 637 192 641Q191 643 191 649Q191 673 202 682Q204 683 217 683Q271 680 344 680Q485 680 506 683H518Q524 677 524 674T522 656Q517 641 513 637H475Q406 636 394 628Q387 624 380 600T313 336Q297 271 279 198T252 88L243 52Q243 48 252 48T311 46H328Q360 46 379 47T428 54T478 72T522 106T564 161Q580 191 594 228T611 270Q616 273 628 273H641Q647 264 647 262T627 203T583 83T557 9Q555 4 553 3T537 0T494 -1Q483 -1 418 -1T294 0H116Q32 0 32 10Q32 17 34 24Q39 43 44 45Q48 46 59 46H65Q92 46 125 49Q139 52 144 61Q147 65 216 339T285 628Q285 635 228 637Z"
        />
        <path
            id="MJX-239-TEX-I-1D445"
            d="M230 637Q203 637 198 638T193 649Q193 676 204 682Q206 683 378 683Q550 682 564 680Q620 672 658 652T712 606T733 563T739 529Q739 484 710 445T643 385T576 351T538 338L545 333Q612 295 612 223Q612 212 607 162T602 80V71Q602 53 603 43T614 25T640 16Q668 16 686 38T712 85Q717 99 720 102T735 105Q755 105 755 93Q755 75 731 36Q693 -21 641 -21H632Q571 -21 531 4T487 82Q487 109 502 166T517 239Q517 290 474 313Q459 320 449 321T378 323H309L277 193Q244 61 244 59Q244 55 245 54T252 50T269 48T302 46H333Q339 38 339 37T336 19Q332 6 326 0H311Q275 2 180 2Q146 2 117 2T71 2T50 1Q33 1 33 10Q33 12 36 24Q41 43 46 45Q50 46 61 46H67Q94 46 127 49Q141 52 146 61Q149 65 218 339T287 628Q287 635 230 637ZM630 554Q630 586 609 608T523 636Q521 636 500 636T462 637H440Q393 637 386 627Q385 624 352 494T319 361Q319 360 388 360Q466 361 492 367Q556 377 592 426Q608 449 619 486T630 554Z"
        />
        <path
            id="MJX-240-TEX-N-69"
            d="M69 609Q69 637 87 653T131 669Q154 667 171 652T188 609Q188 579 171 564T129 549Q104 549 87 564T69 609ZM247 0Q232 3 143 3Q132 3 106 3T56 1L34 0H26V46H42Q70 46 91 49Q100 53 102 60T104 102V205V293Q104 345 102 359T88 378Q74 385 41 385H30V408Q30 431 32 431L42 432Q52 433 70 434T106 436Q123 437 142 438T171 441T182 442H185V62Q190 52 197 50T232 46H255V0H247Z"
        />
        <path
            id="MJX-240-TEX-N-6E"
            d="M41 46H55Q94 46 102 60V68Q102 77 102 91T102 122T103 161T103 203Q103 234 103 269T102 328V351Q99 370 88 376T43 385H25V408Q25 431 27 431L37 432Q47 433 65 434T102 436Q119 437 138 438T167 441T178 442H181V402Q181 364 182 364T187 369T199 384T218 402T247 421T285 437Q305 442 336 442Q450 438 463 329Q464 322 464 190V104Q464 66 466 59T477 49Q498 46 526 46H542V0H534L510 1Q487 2 460 2T422 3Q319 3 310 0H302V46H318Q379 46 379 62Q380 64 380 200Q379 335 378 343Q372 371 358 385T334 402T308 404Q263 404 229 370Q202 343 195 315T187 232V168V108Q187 78 188 68T191 55T200 49Q221 46 249 46H265V0H257L234 1Q210 2 183 2T145 3Q42 3 33 0H25V46H41Z"
        />
        <path
            id="MJX-240-TEX-I-1D445"
            d="M230 637Q203 637 198 638T193 649Q193 676 204 682Q206 683 378 683Q550 682 564 680Q620 672 658 652T712 606T733 563T739 529Q739 484 710 445T643 385T576 351T538 338L545 333Q612 295 612 223Q612 212 607 162T602 80V71Q602 53 603 43T614 25T640 16Q668 16 686 38T712 85Q717 99 720 102T735 105Q755 105 755 93Q755 75 731 36Q693 -21 641 -21H632Q571 -21 531 4T487 82Q487 109 502 166T517 239Q517 290 474 313Q459 320 449 321T378 323H309L277 193Q244 61 244 59Q244 55 245 54T252 50T269 48T302 46H333Q339 38 339 37T336 19Q332 6 326 0H311Q275 2 180 2Q146 2 117 2T71 2T50 1Q33 1 33 10Q33 12 36 24Q41 43 46 45Q50 46 61 46H67Q94 46 127 49Q141 52 146 61Q149 65 218 339T287 628Q287 635 230 637ZM630 554Q630 586 609 608T523 636Q521 636 500 636T462 637H440Q393 637 386 627Q385 624 352 494T319 361Q319 360 388 360Q466 361 492 367Q556 377 592 426Q608 449 619 486T630 554Z"
        />
        <path
            id="MJX-240-TEX-N-2192"
            d="M56 237T56 250T70 270H835Q719 357 692 493Q692 494 692 496T691 499Q691 511 708 511H711Q720 511 723 510T729 506T732 497T735 481T743 456Q765 389 816 336T935 261Q944 258 944 250Q944 244 939 241T915 231T877 212Q836 186 806 152T761 85T740 35T732 4Q730 -6 727 -8T711 -11Q691 -11 691 0Q691 7 696 25Q728 151 835 230H70Q56 237 56 250Z"
        />
        <path
            id="MJX-240-TEX-N-221E"
            d="M55 217Q55 305 111 373T254 442Q342 442 419 381Q457 350 493 303L507 284L514 294Q618 442 747 442Q833 442 888 374T944 214Q944 128 889 59T743 -11Q657 -11 580 50Q542 81 506 128L492 147L485 137Q381 -11 252 -11Q166 -11 111 57T55 217ZM907 217Q907 285 869 341T761 397Q740 397 720 392T682 378T648 359T619 335T594 310T574 285T559 263T548 246L543 238L574 198Q605 158 622 138T664 94T714 61T765 51Q827 51 867 100T907 217ZM92 214Q92 145 131 89T239 33Q357 33 456 193L425 233Q364 312 334 337Q285 380 233 380Q171 380 132 331T92 214Z"
        />
        <path
            id="MJX-241-TEX-N-6F"
            d="M28 214Q28 309 93 378T250 448Q340 448 405 380T471 215Q471 120 407 55T250 -10Q153 -10 91 57T28 214ZM250 30Q372 30 372 193V225V250Q372 272 371 288T364 326T348 362T317 390T268 410Q263 411 252 411Q222 411 195 399Q152 377 139 338T126 246V226Q126 130 145 91Q177 30 250 30Z"
        />
        <path
            id="MJX-241-TEX-N-75"
            d="M383 58Q327 -10 256 -10H249Q124 -10 105 89Q104 96 103 226Q102 335 102 348T96 369Q86 385 36 385H25V408Q25 431 27 431L38 432Q48 433 67 434T105 436Q122 437 142 438T172 441T184 442H187V261Q188 77 190 64Q193 49 204 40Q224 26 264 26Q290 26 311 35T343 58T363 90T375 120T379 144Q379 145 379 161T380 201T380 248V315Q380 361 370 372T320 385H302V431Q304 431 378 436T457 442H464V264Q464 84 465 81Q468 61 479 55T524 46H542V0Q540 0 467 -5T390 -11H383V58Z"
        />
        <path
            id="MJX-241-TEX-N-74"
            d="M27 422Q80 426 109 478T141 600V615H181V431H316V385H181V241Q182 116 182 100T189 68Q203 29 238 29Q282 29 292 100Q293 108 293 146V181H333V146V134Q333 57 291 17Q264 -10 221 -10Q187 -10 162 2T124 33T105 68T98 100Q97 107 97 248V385H18V422H27Z"
        />
        <path
            id="MJX-241-TEX-I-1D445"
            d="M230 637Q203 637 198 638T193 649Q193 676 204 682Q206 683 378 683Q550 682 564 680Q620 672 658 652T712 606T733 563T739 529Q739 484 710 445T643 385T576 351T538 338L545 333Q612 295 612 223Q612 212 607 162T602 80V71Q602 53 603 43T614 25T640 16Q668 16 686 38T712 85Q717 99 720 102T735 105Q755 105 755 93Q755 75 731 36Q693 -21 641 -21H632Q571 -21 531 4T487 82Q487 109 502 166T517 239Q517 290 474 313Q459 320 449 321T378 323H309L277 193Q244 61 244 59Q244 55 245 54T252 50T269 48T302 46H333Q339 38 339 37T336 19Q332 6 326 0H311Q275 2 180 2Q146 2 117 2T71 2T50 1Q33 1 33 10Q33 12 36 24Q41 43 46 45Q50 46 61 46H67Q94 46 127 49Q141 52 146 61Q149 65 218 339T287 628Q287 635 230 637ZM630 554Q630 586 609 608T523 636Q521 636 500 636T462 637H440Q393 637 386 627Q385 624 352 494T319 361Q319 360 388 360Q466 361 492 367Q556 377 592 426Q608 449 619 486T630 554Z"
        />
        <symbol id="node_nmos_arrowmos">
            <g stroke="#000" stroke-miterlimit="10" stroke-width=".4">
                <path
                    fill="none"
                    stroke-width=".53134"
                    d="M37.57039.26569v19.18203h-18.51952m0 20.372h18.51952v19.18204"
                />
                <path
                    fill="none"
                    stroke-width="1.06267"
                    d="M19.05087 15.08254v29.10236m-4.4445-24.73718v20.372"
                />
                <path
                    stroke-width=".53134"
                    d="M26.06998 39.81972v2.64564l5.62199-2.64564-5.62199-2.64562Z"
                    fill="currentColor"
                />
                <path
                    fill="none"
                    stroke-width=".53134"
                    d="M14.60638 29.63372h-14.34069"
                />
            </g>
        </symbol>
        <symbol id="node_ocirc">
            <g stroke="#000" stroke-miterlimit="10" stroke-width=".53134">
                <path
                    fill="#fff"
                    d="M4.49803 2.38186c0-1.16874-.94744-2.11617-2.11617-2.11617s-2.11617.94743-2.11617 2.11617.94743 2.11617 2.11617 2.11617 2.11617-.94744 2.11617-2.11617Zm-2.11617 0"
                />
            </g>
        </symbol>
        <path
            id="MJX-246-TEX-N-69"
            d="M69 609Q69 637 87 653T131 669Q154 667 171 652T188 609Q188 579 171 564T129 549Q104 549 87 564T69 609ZM247 0Q232 3 143 3Q132 3 106 3T56 1L34 0H26V46H42Q70 46 91 49Q100 53 102 60T104 102V205V293Q104 345 102 359T88 378Q74 385 41 385H30V408Q30 431 32 431L42 432Q52 433 70 434T106 436Q123 437 142 438T171 441T182 442H185V62Q190 52 197 50T232 46H255V0H247Z"
        />
        <path
            id="MJX-246-TEX-N-6E"
            d="M41 46H55Q94 46 102 60V68Q102 77 102 91T102 122T103 161T103 203Q103 234 103 269T102 328V351Q99 370 88 376T43 385H25V408Q25 431 27 431L37 432Q47 433 65 434T102 436Q119 437 138 438T167 441T178 442H181V402Q181 364 182 364T187 369T199 384T218 402T247 421T285 437Q305 442 336 442Q450 438 463 329Q464 322 464 190V104Q464 66 466 59T477 49Q498 46 526 46H542V0H534L510 1Q487 2 460 2T422 3Q319 3 310 0H302V46H318Q379 46 379 62Q380 64 380 200Q379 335 378 343Q372 371 358 385T334 402T308 404Q263 404 229 370Q202 343 195 315T187 232V168V108Q187 78 188 68T191 55T200 49Q221 46 249 46H265V0H257L234 1Q210 2 183 2T145 3Q42 3 33 0H25V46H41Z"
        />
        <path
            id="MJX-246-TEX-I-1D463"
            d="M173 380Q173 405 154 405Q130 405 104 376T61 287Q60 286 59 284T58 281T56 279T53 278T49 278T41 278H27Q21 284 21 287Q21 294 29 316T53 368T97 419T160 441Q202 441 225 417T249 361Q249 344 246 335Q246 329 231 291T200 202T182 113Q182 86 187 69Q200 26 250 26Q287 26 319 60T369 139T398 222T409 277Q409 300 401 317T383 343T365 361T357 383Q357 405 376 424T417 443Q436 443 451 425T467 367Q467 340 455 284T418 159T347 40T241 -11Q177 -11 139 22Q102 54 102 117Q102 148 110 181T151 298Q173 362 173 380Z"
        />
        <path
            id="MJX-254-TEX-I-1D454"
            d="M311 43Q296 30 267 15T206 0Q143 0 105 45T66 160Q66 265 143 353T314 442Q361 442 401 394L404 398Q406 401 409 404T418 412T431 419T447 422Q461 422 470 413T480 394Q480 379 423 152T363 -80Q345 -134 286 -169T151 -205Q10 -205 10 -137Q10 -111 28 -91T74 -71Q89 -71 102 -80T116 -111Q116 -121 114 -130T107 -144T99 -154T92 -162L90 -164H91Q101 -167 151 -167Q189 -167 211 -155Q234 -144 254 -122T282 -75Q288 -56 298 -13Q311 35 311 43ZM384 328L380 339Q377 350 375 354T369 368T359 382T346 393T328 402T306 405Q262 405 221 352Q191 313 171 233T151 117Q151 38 213 38Q269 38 323 108L331 118L384 328Z"
        />
        <path
            id="MJX-254-TEX-I-1D445"
            d="M230 637Q203 637 198 638T193 649Q193 676 204 682Q206 683 378 683Q550 682 564 680Q620 672 658 652T712 606T733 563T739 529Q739 484 710 445T643 385T576 351T538 338L545 333Q612 295 612 223Q612 212 607 162T602 80V71Q602 53 603 43T614 25T640 16Q668 16 686 38T712 85Q717 99 720 102T735 105Q755 105 755 93Q755 75 731 36Q693 -21 641 -21H632Q571 -21 531 4T487 82Q487 109 502 166T517 239Q517 290 474 313Q459 320 449 321T378 323H309L277 193Q244 61 244 59Q244 55 245 54T252 50T269 48T302 46H333Q339 38 339 37T336 19Q332 6 326 0H311Q275 2 180 2Q146 2 117 2T71 2T50 1Q33 1 33 10Q33 12 36 24Q41 43 46 45Q50 46 61 46H67Q94 46 127 49Q141 52 146 61Q149 65 218 339T287 628Q287 635 230 637ZM630 554Q630 586 609 608T523 636Q521 636 500 636T462 637H440Q393 637 386 627Q385 624 352 494T319 361Q319 360 388 360Q466 361 492 367Q556 377 592 426Q608 449 619 486T630 554Z"
        />
        <path
            id="MJX-255-TEX-I-1D43F"
            d="M228 637Q194 637 192 641Q191 643 191 649Q191 673 202 682Q204 683 217 683Q271 680 344 680Q485 680 506 683H518Q524 677 524 674T522 656Q517 641 513 637H475Q406 636 394 628Q387 624 380 600T313 336Q297 271 279 198T252 88L243 52Q243 48 252 48T311 46H328Q360 46 379 47T428 54T478 72T522 106T564 161Q580 191 594 228T611 270Q616 273 628 273H641Q647 264 647 262T627 203T583 83T557 9Q555 4 553 3T537 0T494 -1Q483 -1 418 -1T294 0H116Q32 0 32 10Q32 17 34 24Q39 43 44 45Q48 46 59 46H65Q92 46 125 49Q139 52 144 61Q147 65 216 339T285 628Q285 635 228 637Z"
        />
        <path
            id="MJX-255-TEX-I-1D445"
            d="M230 637Q203 637 198 638T193 649Q193 676 204 682Q206 683 378 683Q550 682 564 680Q620 672 658 652T712 606T733 563T739 529Q739 484 710 445T643 385T576 351T538 338L545 333Q612 295 612 223Q612 212 607 162T602 80V71Q602 53 603 43T614 25T640 16Q668 16 686 38T712 85Q717 99 720 102T735 105Q755 105 755 93Q755 75 731 36Q693 -21 641 -21H632Q571 -21 531 4T487 82Q487 109 502 166T517 239Q517 290 474 313Q459 320 449 321T378 323H309L277 193Q244 61 244 59Q244 55 245 54T252 50T269 48T302 46H333Q339 38 339 37T336 19Q332 6 326 0H311Q275 2 180 2Q146 2 117 2T71 2T50 1Q33 1 33 10Q33 12 36 24Q41 43 46 45Q50 46 61 46H67Q94 46 127 49Q141 52 146 61Q149 65 218 339T287 628Q287 635 230 637ZM630 554Q630 586 609 608T523 636Q521 636 500 636T462 637H440Q393 637 386 627Q385 624 352 494T319 361Q319 360 388 360Q466 361 492 367Q556 377 592 426Q608 449 619 486T630 554Z"
        />
        <path
            id="MJX-266-TEX-N-69"
            d="M69 609Q69 637 87 653T131 669Q154 667 171 652T188 609Q188 579 171 564T129 549Q104 549 87 564T69 609ZM247 0Q232 3 143 3Q132 3 106 3T56 1L34 0H26V46H42Q70 46 91 49Q100 53 102 60T104 102V205V293Q104 345 102 359T88 378Q74 385 41 385H30V408Q30 431 32 431L42 432Q52 433 70 434T106 436Q123 437 142 438T171 441T182 442H185V62Q190 52 197 50T232 46H255V0H247Z"
        />
        <path
            id="MJX-266-TEX-N-6E"
            d="M41 46H55Q94 46 102 60V68Q102 77 102 91T102 122T103 161T103 203Q103 234 103 269T102 328V351Q99 370 88 376T43 385H25V408Q25 431 27 431L37 432Q47 433 65 434T102 436Q119 437 138 438T167 441T178 442H181V402Q181 364 182 364T187 369T199 384T218 402T247 421T285 437Q305 442 336 442Q450 438 463 329Q464 322 464 190V104Q464 66 466 59T477 49Q498 46 526 46H542V0H534L510 1Q487 2 460 2T422 3Q319 3 310 0H302V46H318Q379 46 379 62Q380 64 380 200Q379 335 378 343Q372 371 358 385T334 402T308 404Q263 404 229 370Q202 343 195 315T187 232V168V108Q187 78 188 68T191 55T200 49Q221 46 249 46H265V0H257L234 1Q210 2 183 2T145 3Q42 3 33 0H25V46H41Z"
        />
        <path
            id="MJX-266-TEX-I-1D445"
            d="M230 637Q203 637 198 638T193 649Q193 676 204 682Q206 683 378 683Q550 682 564 680Q620 672 658 652T712 606T733 563T739 529Q739 484 710 445T643 385T576 351T538 338L545 333Q612 295 612 223Q612 212 607 162T602 80V71Q602 53 603 43T614 25T640 16Q668 16 686 38T712 85Q717 99 720 102T735 105Q755 105 755 93Q755 75 731 36Q693 -21 641 -21H632Q571 -21 531 4T487 82Q487 109 502 166T517 239Q517 290 474 313Q459 320 449 321T378 323H309L277 193Q244 61 244 59Q244 55 245 54T252 50T269 48T302 46H333Q339 38 339 37T336 19Q332 6 326 0H311Q275 2 180 2Q146 2 117 2T71 2T50 1Q33 1 33 10Q33 12 36 24Q41 43 46 45Q50 46 61 46H67Q94 46 127 49Q141 52 146 61Q149 65 218 339T287 628Q287 635 230 637ZM630 554Q630 586 609 608T523 636Q521 636 500 636T462 637H440Q393 637 386 627Q385 624 352 494T319 361Q319 360 388 360Q466 361 492 367Q556 377 592 426Q608 449 619 486T630 554Z"
        />
        <path
            id="MJX-266-TEX-N-2192"
            d="M56 237T56 250T70 270H835Q719 357 692 493Q692 494 692 496T691 499Q691 511 708 511H711Q720 511 723 510T729 506T732 497T735 481T743 456Q765 389 816 336T935 261Q944 258 944 250Q944 244 939 241T915 231T877 212Q836 186 806 152T761 85T740 35T732 4Q730 -6 727 -8T711 -11Q691 -11 691 0Q691 7 696 25Q728 151 835 230H70Q56 237 56 250Z"
        />
        <path
            id="MJX-266-TEX-N-30"
            d="M96 585Q152 666 249 666Q297 666 345 640T423 548Q460 465 460 320Q460 165 417 83Q397 41 362 16T301 -15T250 -22Q224 -22 198 -16T137 16T82 83Q39 165 39 320Q39 494 96 585ZM321 597Q291 629 250 629Q208 629 178 597Q153 571 145 525T137 333Q137 175 145 125T181 46Q209 16 250 16Q290 16 318 46Q347 76 354 130T362 333Q362 478 354 524T321 597Z"
        />
        <path
            id="MJX-257-TEX-N-6F"
            d="M28 214Q28 309 93 378T250 448Q340 448 405 380T471 215Q471 120 407 55T250 -10Q153 -10 91 57T28 214ZM250 30Q372 30 372 193V225V250Q372 272 371 288T364 326T348 362T317 390T268 410Q263 411 252 411Q222 411 195 399Q152 377 139 338T126 246V226Q126 130 145 91Q177 30 250 30Z"
        />
        <path
            id="MJX-257-TEX-N-75"
            d="M383 58Q327 -10 256 -10H249Q124 -10 105 89Q104 96 103 226Q102 335 102 348T96 369Q86 385 36 385H25V408Q25 431 27 431L38 432Q48 433 67 434T105 436Q122 437 142 438T172 441T184 442H187V261Q188 77 190 64Q193 49 204 40Q224 26 264 26Q290 26 311 35T343 58T363 90T375 120T379 144Q379 145 379 161T380 201T380 248V315Q380 361 370 372T320 385H302V431Q304 431 378 436T457 442H464V264Q464 84 465 81Q468 61 479 55T524 46H542V0Q540 0 467 -5T390 -11H383V58Z"
        />
        <path
            id="MJX-257-TEX-N-74"
            d="M27 422Q80 426 109 478T141 600V615H181V431H316V385H181V241Q182 116 182 100T189 68Q203 29 238 29Q282 29 292 100Q293 108 293 146V181H333V146V134Q333 57 291 17Q264 -10 221 -10Q187 -10 162 2T124 33T105 68T98 100Q97 107 97 248V385H18V422H27Z"
        />
        <path
            id="MJX-257-TEX-I-1D445"
            d="M230 637Q203 637 198 638T193 649Q193 676 204 682Q206 683 378 683Q550 682 564 680Q620 672 658 652T712 606T733 563T739 529Q739 484 710 445T643 385T576 351T538 338L545 333Q612 295 612 223Q612 212 607 162T602 80V71Q602 53 603 43T614 25T640 16Q668 16 686 38T712 85Q717 99 720 102T735 105Q755 105 755 93Q755 75 731 36Q693 -21 641 -21H632Q571 -21 531 4T487 82Q487 109 502 166T517 239Q517 290 474 313Q459 320 449 321T378 323H309L277 193Q244 61 244 59Q244 55 245 54T252 50T269 48T302 46H333Q339 38 339 37T336 19Q332 6 326 0H311Q275 2 180 2Q146 2 117 2T71 2T50 1Q33 1 33 10Q33 12 36 24Q41 43 46 45Q50 46 61 46H67Q94 46 127 49Q141 52 146 61Q149 65 218 339T287 628Q287 635 230 637ZM630 554Q630 586 609 608T523 636Q521 636 500 636T462 637H440Q393 637 386 627Q385 624 352 494T319 361Q319 360 388 360Q466 361 492 367Q556 377 592 426Q608 449 619 486T630 554Z"
        />
        <symbol id="path_american-current-source">
            <g stroke="#000" stroke-miterlimit="10" stroke-width=".4">
                <g fill="currentFill" stroke-width="1.06267" class="fillable">
                    <path
                        d="M16.40544.53136c-8.7671 0-15.87408 7.10697-15.87408 15.87408s7.10697 15.87408 15.87408 15.87408 15.87408-7.10697 15.87408-15.87408-7.10697-15.87408-15.87408-15.87408Zm0 15.87408"
                    />
                    <path fill="none" d="M5.29364 16.40544h22.2236" />
                    <path
                        fill="#000"
                        d="M22.02754 16.40544v2.64564l5.62198-2.64564-5.62198-2.64564Z"
                    />
                </g>
            </g>
        </symbol>
        <path
            id="MJX-283-TEX-N-69"
            d="M69 609Q69 637 87 653T131 669Q154 667 171 652T188 609Q188 579 171 564T129 549Q104 549 87 564T69 609ZM247 0Q232 3 143 3Q132 3 106 3T56 1L34 0H26V46H42Q70 46 91 49Q100 53 102 60T104 102V205V293Q104 345 102 359T88 378Q74 385 41 385H30V408Q30 431 32 431L42 432Q52 433 70 434T106 436Q123 437 142 438T171 441T182 442H185V62Q190 52 197 50T232 46H255V0H247Z"
        />
        <path
            id="MJX-283-TEX-N-6E"
            d="M41 46H55Q94 46 102 60V68Q102 77 102 91T102 122T103 161T103 203Q103 234 103 269T102 328V351Q99 370 88 376T43 385H25V408Q25 431 27 431L37 432Q47 433 65 434T102 436Q119 437 138 438T167 441T178 442H181V402Q181 364 182 364T187 369T199 384T218 402T247 421T285 437Q305 442 336 442Q450 438 463 329Q464 322 464 190V104Q464 66 466 59T477 49Q498 46 526 46H542V0H534L510 1Q487 2 460 2T422 3Q319 3 310 0H302V46H318Q379 46 379 62Q380 64 380 200Q379 335 378 343Q372 371 358 385T334 402T308 404Q263 404 229 370Q202 343 195 315T187 232V168V108Q187 78 188 68T191 55T200 49Q221 46 249 46H265V0H257L234 1Q210 2 183 2T145 3Q42 3 33 0H25V46H41Z"
        />
        <path
            id="MJX-283-TEX-I-1D456"
            d="M184 600Q184 624 203 642T247 661Q265 661 277 649T290 619Q290 596 270 577T226 557Q211 557 198 567T184 600ZM21 287Q21 295 30 318T54 369T98 420T158 442Q197 442 223 419T250 357Q250 340 236 301T196 196T154 83Q149 61 149 51Q149 26 166 26Q175 26 185 29T208 43T235 78T260 137Q263 149 265 151T282 153Q302 153 302 143Q302 135 293 112T268 61T223 11T161 -11Q129 -11 102 10T74 74Q74 91 79 106T122 220Q160 321 166 341T173 380Q173 404 156 404H154Q124 404 99 371T61 287Q60 286 59 284T58 281T56 279T53 278T49 278T41 278H27Q21 284 21 287Z"
        />
        <symbol id="node_circ">
            <g stroke="#000" stroke-miterlimit="10" stroke-width=".53134">
                <path
                    d="M4.49803 2.38186c0-1.16874-.94744-2.11617-2.11617-2.11617s-2.11617.94743-2.11617 2.11617.94743 2.11617 2.11617 2.11617 2.11617-.94744 2.11617-2.11617Zm-2.11617 0"
                    fill="currentColor"
                />
            </g>
        </symbol>
        <symbol id="node_flowarrow">
            <g stroke="#000" stroke-miterlimit="10" stroke-width=".53134">
                <path fill="none" d="M.26569 2.91132h26.45657" />
                <path
                    d="M21.10027 2.91132v2.64564l5.62199-2.64564-5.62199-2.64562Z"
                    fill="currentColor"
                />
            </g>
        </symbol>
        <path
            id="MJX-296-TEX-N-69"
            d="M69 609Q69 637 87 653T131 669Q154 667 171 652T188 609Q188 579 171 564T129 549Q104 549 87 564T69 609ZM247 0Q232 3 143 3Q132 3 106 3T56 1L34 0H26V46H42Q70 46 91 49Q100 53 102 60T104 102V205V293Q104 345 102 359T88 378Q74 385 41 385H30V408Q30 431 32 431L42 432Q52 433 70 434T106 436Q123 437 142 438T171 441T182 442H185V62Q190 52 197 50T232 46H255V0H247Z"
        />
        <path
            id="MJX-296-TEX-N-6E"
            d="M41 46H55Q94 46 102 60V68Q102 77 102 91T102 122T103 161T103 203Q103 234 103 269T102 328V351Q99 370 88 376T43 385H25V408Q25 431 27 431L37 432Q47 433 65 434T102 436Q119 437 138 438T167 441T178 442H181V402Q181 364 182 364T187 369T199 384T218 402T247 421T285 437Q305 442 336 442Q450 438 463 329Q464 322 464 190V104Q464 66 466 59T477 49Q498 46 526 46H542V0H534L510 1Q487 2 460 2T422 3Q319 3 310 0H302V46H318Q379 46 379 62Q380 64 380 200Q379 335 378 343Q372 371 358 385T334 402T308 404Q263 404 229 370Q202 343 195 315T187 232V168V108Q187 78 188 68T191 55T200 49Q221 46 249 46H265V0H257L234 1Q210 2 183 2T145 3Q42 3 33 0H25V46H41Z"
        />
        <path
            id="MJX-296-TEX-I-1D456"
            d="M184 600Q184 624 203 642T247 661Q265 661 277 649T290 619Q290 596 270 577T226 557Q211 557 198 567T184 600ZM21 287Q21 295 30 318T54 369T98 420T158 442Q197 442 223 419T250 357Q250 340 236 301T196 196T154 83Q149 61 149 51Q149 26 166 26Q175 26 185 29T208 43T235 78T260 137Q263 149 265 151T282 153Q302 153 302 143Q302 135 293 112T268 61T223 11T161 -11Q129 -11 102 10T74 74Q74 91 79 106T122 220Q160 321 166 341T173 380Q173 404 156 404H154Q124 404 99 371T61 287Q60 286 59 284T58 281T56 279T53 278T49 278T41 278H27Q21 284 21 287Z"
        />
    </defs>
    <g style="" class="">
        <use
            xlink:href="#path_sinusoidal-voltage-source"
            fill="none"
            stroke="#000"
            style="color: #000;"
            transform="matrix(4.286263797015736e-17,-0.7,0.7,4.286263797015736e-17,394.8154045984252,-220.0127077480315)"
        />
        <line
            x1="406.2992125984252"
            y1="-207.8740157480315"
            x2="406.2992125984252"
            y2="-220.38465974803148"
            fill="none"
            stroke-width="0.5"
            stroke="#000"
        />
        <line
            x1="406.2992125984252"
            y1="-255.1190157480315"
            x2="406.2992125984252"
            y2="-242.6083717480315"
            fill="none"
            stroke-width="0.5"
            stroke="#000"
        />
        <g>
            <g
                class="pointerNone"
                fill="#000"
                transform="matrix(1,0,0,1,372.57714763820024,-229.5239701242522)"
            >
                <g
                    transform="matrix(0.013459567746932298,0,0,0.013464476420654596,0,0)"
                >
                    <g
                        stroke="currentColor"
                        fill="inherit"
                        stroke-width="0"
                        transform="scale(1,-1)"
                    >
                        <g>
                            <g transform="translate(518,-150) scale(0.707)">
                                <use xlink:href="#MJX-237-TEX-N-69" />
                                <use
                                    xlink:href="#MJX-237-TEX-N-6E"
                                    transform="translate(278,0)"
                                />
                            </g>
                            <use xlink:href="#MJX-237-TEX-I-1D463" />
                        </g>
                    </g>
                </g>
            </g>
            <g>
                <path
                    d="M0 4.5 H9 M4.5 0V9"
                    stroke-linejoin="round"
                    stroke-width="0.5"
                    stroke="#000"
                    transform="matrix(1,0,0,1,385.8154045984252,-242.58822154003147)"
                />
                <path
                    d="M0 4.5 H9"
                    stroke-linejoin="round"
                    stroke-width="0.5"
                    stroke="#000"
                    transform="matrix(1,0,0,1,385.8154045984252,-229.40480995603153)"
                />
            </g>
        </g>
    </g>
    <g style="" class="">
        <use
            xlink:href="#path_american-resistor"
            fill="none"
            stroke="#000"
            style="color: #000;"
            transform="matrix(0.7,0,0,0.7,419.08606929133856,-270.49479513385825)"
        />
        <line
            x1="406.2992125984252"
            y1="-264.56692913385825"
            x2="419.8299592913386"
            y2="-264.56692913385825"
            fill="none"
            stroke-width="0.5"
            stroke="#000"
        />
        <line
            x1="462.9921259842519"
            y1="-264.56692913385825"
            x2="449.46139329133854"
            y2="-264.56692913385825"
            fill="none"
            stroke-width="0.5"
            stroke="#000"
        />
        <g
            class="pointerNone"
            transform="matrix(1,0,0,1,426.80937970670186,-279.0008683872195)"
            fill="#000"
        >
            <g
                transform="matrix(0.013460251492083278,0,0,0.013462763194993899,0,0)"
            >
                <g
                    stroke="currentColor"
                    fill="inherit"
                    stroke-width="0"
                    transform="scale(1,-1)"
                >
                    <g>
                        <g transform="translate(792,-150) scale(0.707)">
                            <use xlink:href="#MJX-238-TEX-I-1D454" />
                        </g>
                        <use xlink:href="#MJX-238-TEX-I-1D445" />
                    </g>
                </g>
            </g>
        </g>
    </g>
    <g class="">
        <use
            xlink:href="#node_ground"
            fill="none"
            stroke="#000"
            style="color: #000;"
            transform="matrix(1,0,0,1,397.8688725984252,-208.1397157480315)"
        />
    </g>
    <g style="" class="">
        <use
            xlink:href="#path_american-resistor"
            fill="none"
            stroke="#000"
            style="color: #000;"
            transform="matrix(4.286263797015736e-17,0.7,-0.7,4.286263797015736e-17,620.1010943464566,-247.05566299212597)"
        />
        <line
            x1="614.1732283464567"
            y1="-255.11811023622047"
            x2="614.1732283464567"
            y2="-246.31177299212598"
            fill="none"
            stroke-width="0.5"
            stroke="#000"
        />
        <line
            x1="614.1732283464567"
            y1="-207.87401574803147"
            x2="614.1732283464567"
            y2="-216.68033899212597"
            fill="none"
            stroke-width="0.5"
            stroke="#000"
        />
        <g
            class="pointerNone"
            transform="matrix(1,0,0,1,624.1923735720126,-227.91438555529737)"
            fill="#000"
        >
            <g
                transform="matrix(0.013459207789286432,0,0,0.01346350080901792,0,0)"
            >
                <g
                    stroke="currentColor"
                    fill="inherit"
                    stroke-width="0"
                    transform="scale(1,-1)"
                >
                    <g>
                        <g transform="translate(792,-150) scale(0.707)">
                            <use xlink:href="#MJX-239-TEX-I-1D43F" />
                        </g>
                        <use xlink:href="#MJX-239-TEX-I-1D445" />
                    </g>
                </g>
            </g>
        </g>
    </g>
    <g class="">
        <use
            xlink:href="#node_ground"
            fill="none"
            stroke="#000"
            style="color: #000;"
            transform="matrix(1,0,0,1,605.7428883464567,-208.13962913385836)"
        />
    </g>
    <g class="">
        <polyline
            points="406.2992125984252,-264.5670157480315 406.2992125984252,-255.1180157480315"
            fill="none"
            stroke-dasharray="0.4pt 0pt"
            stroke-opacity="1"
            stroke-width="0.5333333333333333"
            stroke="#000"
        />
    </g>
    <g class="">
        <rect
            width="74.25721784776913"
            height="74.25766666666667"
            style=""
            x="0.6666666666666643"
            y="0.6666666666666643"
            transform="matrix(1,0,0,1,481.88976377952747,-302.36242913385826)"
            stroke-dasharray="1pt 0pt"
            stroke-opacity="0.7"
            stroke-width="1.3333333333333333"
            stroke="#000"
            fill-opacity="1"
            fill="none"
        />
    </g>
    <g class="">
        <polyline
            points="462.9921259842519,-264.56692913385825 481.8898503937007,-264.56692913385825 481.8898503937007,-264.5670157480315"
            fill="none"
            stroke-dasharray="0.4pt 0pt"
            stroke-opacity="1"
            stroke-width="0.5333333333333333"
            stroke="#000"
        />
    </g>
    <g class="">
        <use
            xlink:href="#node_ground"
            fill="none"
            stroke="#000"
            style="color: #000;"
            transform="matrix(1,0,0,1,511.25511669291336,-208.1397)"
        />
    </g>
    <g class="">
        <polyline
            points="519.6854566929134,-226.772 519.6854566929134,-207.874"
            fill="none"
            stroke-dasharray="0.4pt 0pt"
            stroke-opacity="1"
            stroke-width="0.5333333333333333"
            stroke="#000"
        />
    </g>
    <g class="">
        <polyline
            points="479.1401574803149,-245.66930708661417 472.44115748031487,-245.66930708661417 472.4409448818897,-198.4251968503937"
            fill="none"
            stroke-dasharray="0.6pt 0pt"
            stroke-opacity="1"
            stroke-width="0.7999999999999999"
            stroke="#000"
        />
        <g
            stroke-opacity="1"
            stroke="#000"
            fill-opacity="1"
            fill="#000"
            transform="matrix(5.5,0,0,5.5,476.3901574803149,-248.41930708661417)"
            stroke-width="0"
        >
            <path
                stroke="none"
                d="M 0 0.125 C 0.375 0.375 1 0.5 1 0.5 C 1 0.5 0.375 0.625 0 0.875 z"
            />
        </g>
    </g>
    <g class="">
        <g
            class="pointerNone"
            transform="matrix(1,0,0,1,445.7598321454262,-185.3883547670259)"
            fill="#000"
        >
            <g
                transform="matrix(0.013460692950097929,0,0,0.01346350080901792,0,0)"
            >
                <g
                    stroke="currentColor"
                    fill="inherit"
                    stroke-width="0"
                    transform="scale(1,-1)"
                >
                    <g>
                        <g>
                            <g transform="translate(792,-150) scale(0.707)">
                                <use xlink:href="#MJX-240-TEX-N-69" />
                                <use
                                    xlink:href="#MJX-240-TEX-N-6E"
                                    transform="translate(278,0)"
                                />
                            </g>
                            <use xlink:href="#MJX-240-TEX-I-1D445" />
                        </g>
                        <g transform="translate(1709.5,0)">
                            <use xlink:href="#MJX-240-TEX-N-2192" />
                        </g>
                        <g transform="translate(2987.3,0)">
                            <use xlink:href="#MJX-240-TEX-N-221E" />
                        </g>
                    </g>
                </g>
            </g>
        </g>
    </g>
    <g class="">
        <g
            class="pointerNone"
            transform="matrix(1,0,0,1,554.7664445896786,-185.44191693133254)"
            fill="#000"
        >
            <g
                transform="matrix(0.013461577048284344,0,0,0.013458896619097443,0,0)"
            >
                <g
                    stroke="currentColor"
                    fill="inherit"
                    stroke-width="0"
                    transform="scale(1,-1)"
                >
                    <g>
                        <g transform="translate(792,-150) scale(0.707)">
                            <use xlink:href="#MJX-241-TEX-N-6F" />
                            <use
                                xlink:href="#MJX-241-TEX-N-75"
                                transform="translate(500,0)"
                            />
                            <use
                                xlink:href="#MJX-241-TEX-N-74"
                                transform="translate(1056,0)"
                            />
                        </g>
                        <use xlink:href="#MJX-241-TEX-I-1D445" />
                    </g>
                </g>
            </g>
        </g>
    </g>
    <g class="">
        <polyline
            points="566.9291338582676,-198.4251968503937 566.9289055118109,-198.4251968503937 566.9289055118109,-245.66912598425205 559.779905511811,-245.66912598425205"
            fill="none"
            stroke-dasharray="0.4pt 0pt"
            stroke-opacity="1"
            stroke-width="0.5333333333333333"
            stroke="#000"
        />
        <g
            stroke-opacity="1"
            stroke="#000"
            fill-opacity="1"
            fill="#000"
            transform="matrix(-4.6,5.633375276077824e-16,-5.633375276077824e-16,-4.6,562.079905511811,-243.36912598425204)"
            stroke-width="0"
        >
            <path
                stroke="none"
                d="M 0 0.125 C 0.375 0.375 1 0.5 1 0.5 C 1 0.5 0.375 0.625 0 0.875 z"
            />
        </g>
    </g>
    <g class="">
        <use
            xlink:href="#node_nmos_arrowmos"
            fill="none"
            stroke="#000"
            style="color: #000;"
            transform="matrix(0.5,0,0,0.5,510.3482616929131,-293.93486)"
        />
    </g>
    <g class="">
        <g transform="matrix(1,0,0,1,0,0)" style="pointer-events: none;">
            <g
                fill="#000"
                transform="matrix(1,0,0,1,483.2232900262467,-255.07951664225263)"
            />
            <g
                fill="#000"
                transform="matrix(1,0,0,1,483.2232900262467,-255.07951664225263)"
            >
                <path
                    d="M0.34 2.78L0.34 2.78L0.34 2.49Q0.76 2.52 1.25 2.52L1.25 2.52Q1.42 2.52 2.26 2.49L2.26 2.49L2.26 2.78Q1.73 2.78 1.73 3.02L1.73 3.02Q1.73 3.06 1.78 3.18L1.78 3.18L2.83 5.78L3.79 3.40Q3.84 3.24 3.84 3.18L3.84 3.18Q3.84 3.02 3.73 2.90Q3.63 2.79 3.39 2.78L3.39 2.78L3.39 2.49Q3.87 2.52 4.20 2.52L4.20 2.52Q4.59 2.52 4.90 2.49L4.90 2.49L4.90 2.78Q4.62 2.78 4.43 2.90Q4.23 3.03 4.17 3.14Q4.11 3.24 4.04 3.40L4.04 3.40L2.82 6.44Q2.75 6.62 2.63 6.62L2.63 6.62Q2.55 6.62 2.51 6.58Q2.48 6.55 2.43 6.44L2.43 6.44L1.09 3.13Q1.00 2.89 0.88 2.84Q0.76 2.78 0.34 2.78ZM5.96 6.01Q5.34 5.40 5.34 4.51Q5.34 3.63 5.94 2.98Q6.55 2.33 7.41 2.33L7.41 2.33Q8.26 2.33 8.87 2.97Q9.48 3.62 9.48 4.52L9.48 4.52Q9.48 5.40 8.86 6.01Q8.25 6.62 7.40 6.62L7.40 6.62Q6.57 6.62 5.96 6.01ZM6.11 4.44L6.11 4.44Q6.11 5.35 6.35 5.76L6.35 5.76Q6.72 6.38 7.41 6.38L7.41 6.38Q7.76 6.38 8.05 6.19Q8.34 6.01 8.50 5.69L8.50 5.69Q8.70 5.28 8.70 4.44L8.70 4.44Q8.70 3.54 8.46 3.14L8.46 3.14Q8.09 2.54 7.40 2.54L7.40 2.54Q7.10 2.54 6.81 2.70Q6.52 2.85 6.34 3.16L6.34 3.16Q6.11 3.57 6.11 4.44ZM10.06 6.51L10.06 6.51L10.06 6.22Q10.55 6.22 10.67 6.16Q10.78 6.10 10.78 5.80L10.78 5.80L10.78 0.95Q10.78 0.60 10.66 0.51Q10.54 0.43 10.06 0.43L10.06 0.43L10.06 0.14L11.40 0.04L11.40 5.80Q11.40 6.10 11.51 6.16Q11.63 6.22 12.13 6.22L12.13 6.22L12.13 6.51Q12.01 6.51 11.77 6.50Q11.54 6.49 11.36 6.49Q11.19 6.48 11.09 6.48L11.09 6.48Q10.98 6.48 10.06 6.51ZM13.30 2.78L12.51 2.78L12.51 2.57Q12.94 2.56 13.22 2.25Q13.51 1.95 13.60 1.58Q13.70 1.20 13.71 0.77L13.71 0.77L13.94 0.77L13.94 2.49L15.28 2.49L15.28 2.78L13.94 2.78L13.94 5.37Q13.94 6.38 14.57 6.38L14.57 6.38Q14.84 6.38 15.02 6.10Q15.20 5.83 15.20 5.34L15.20 5.34L15.20 4.82L15.43 4.82L15.43 5.35Q15.43 5.86 15.20 6.24Q14.96 6.62 14.50 6.62L14.50 6.62Q14.34 6.62 14.17 6.57Q14.00 6.53 13.79 6.42Q13.57 6.31 13.44 6.03Q13.30 5.76 13.30 5.35L13.30 5.35L13.30 2.78ZM16.34 5.62L16.34 5.62Q16.34 4.83 17.27 4.41L17.27 4.41Q17.84 4.14 18.99 4.07L18.99 4.07L18.99 3.73Q18.99 3.15 18.69 2.85Q18.39 2.54 18.00 2.54L18.00 2.54Q17.32 2.54 16.99 2.97L16.99 2.97Q17.27 2.98 17.37 3.11Q17.47 3.25 17.47 3.39L17.47 3.39Q17.47 3.58 17.35 3.70Q17.24 3.82 17.04 3.82L17.04 3.82Q16.86 3.82 16.73 3.71Q16.61 3.59 16.61 3.39L16.61 3.39Q16.61 2.93 17.02 2.63Q17.43 2.33 18.02 2.33L18.02 2.33Q18.79 2.33 19.30 2.84L19.30 2.84Q19.46 3.00 19.54 3.21Q19.62 3.41 19.63 3.55Q19.64 3.68 19.64 3.95L19.64 3.95L19.64 5.81Q19.64 5.86 19.65 5.96Q19.67 6.05 19.76 6.16Q19.84 6.28 19.98 6.28L19.98 6.28Q20.32 6.28 20.31 5.68L20.31 5.68L20.31 5.16L20.55 5.16L20.55 5.68Q20.55 6.18 20.29 6.37Q20.03 6.57 19.79 6.57L19.79 6.57Q19.48 6.57 19.28 6.34Q19.08 6.11 19.06 5.80L19.06 5.80Q18.92 6.16 18.59 6.39Q18.27 6.62 17.84 6.62L17.84 6.62Q17.50 6.62 17.18 6.53Q16.86 6.45 16.60 6.21Q16.34 5.98 16.34 5.62ZM17.06 5.61L17.06 5.61Q17.06 5.96 17.31 6.18Q17.55 6.41 17.90 6.41L17.90 6.41Q18.29 6.41 18.64 6.10Q18.99 5.80 18.99 5.20L18.99 5.20L18.99 4.27Q17.96 4.31 17.51 4.72Q17.06 5.13 17.06 5.61ZM20.88 7.25L20.88 7.25Q20.88 6.95 21.11 6.69Q21.34 6.43 21.74 6.32L21.74 6.32Q21.33 6.06 21.33 5.49L21.33 5.49Q21.33 5.05 21.61 4.71L21.61 4.71Q21.18 4.35 21.18 3.75L21.18 3.75Q21.18 3.20 21.61 2.79Q22.05 2.39 22.69 2.39L22.69 2.39Q23.25 2.39 23.68 2.72L23.68 2.72Q24.12 2.29 24.67 2.28L24.67 2.28Q24.91 2.28 25.02 2.43Q25.14 2.58 25.14 2.74L25.14 2.74Q25.14 2.88 25.05 2.95Q24.96 3.02 24.87 3.02L24.87 3.02Q24.76 3.02 24.68 2.95Q24.60 2.87 24.60 2.75L24.60 2.75Q24.60 2.56 24.75 2.50L24.75 2.50Q24.72 2.49 24.66 2.49L24.66 2.49Q24.20 2.49 23.81 2.85L23.81 2.85Q24.20 3.21 24.20 3.76Q24.20 4.31 23.76 4.72Q23.32 5.12 22.69 5.12L22.69 5.12Q22.16 5.12 21.76 4.83L21.76 4.83Q21.60 5.02 21.60 5.27L21.60 5.27Q21.60 5.50 21.75 5.69Q21.89 5.87 22.10 5.90L22.10 5.90Q22.16 5.91 22.80 5.91L22.80 5.91Q23.17 5.91 23.38 5.92Q23.58 5.92 23.88 5.99Q24.17 6.05 24.40 6.17L24.40 6.17Q25.01 6.50 25.01 7.23L25.01 7.23Q25.01 7.77 24.40 8.10Q23.79 8.44 22.94 8.44L22.94 8.44Q22.08 8.44 21.48 8.10Q20.88 7.76 20.88 7.25ZM21.36 7.25L21.36 7.25Q21.36 7.63 21.81 7.93Q22.27 8.22 22.95 8.22L22.95 8.22Q23.62 8.22 24.07 7.93Q24.53 7.64 24.53 7.25L24.53 7.25Q24.53 6.97 24.37 6.79Q24.21 6.62 23.88 6.55Q23.55 6.48 23.33 6.46Q23.10 6.45 22.68 6.45L22.68 6.45L22.13 6.45Q21.81 6.47 21.59 6.70Q21.36 6.93 21.36 7.25ZM21.87 3.76L21.87 3.76Q21.87 4.91 22.69 4.91L22.69 4.91Q23.10 4.91 23.35 4.53L23.35 4.53Q23.50 4.28 23.50 3.75L23.50 3.75Q23.50 2.60 22.69 2.60L22.69 2.60Q22.28 2.60 22.02 2.98L22.02 2.98Q21.87 3.23 21.87 3.76ZM25.54 4.46L25.54 4.46Q25.54 3.58 26.11 2.95Q26.67 2.33 27.48 2.33L27.48 2.33Q28.30 2.33 28.73 2.86Q29.16 3.39 29.16 4.16L29.16 4.16Q29.16 4.30 29.12 4.33Q29.08 4.36 28.92 4.36L28.92 4.36L26.32 4.36Q26.32 5.31 26.60 5.76L26.60 5.76Q26.99 6.38 27.65 6.38L27.65 6.38Q27.74 6.38 27.85 6.36Q27.96 6.34 28.18 6.26Q28.41 6.18 28.60 5.97Q28.80 5.76 28.91 5.42L28.91 5.42Q28.94 5.29 29.03 5.29L29.03 5.29Q29.16 5.29 29.16 5.40L29.16 5.40Q29.16 5.48 29.07 5.67Q28.98 5.85 28.81 6.07Q28.64 6.29 28.31 6.45Q27.99 6.62 27.60 6.62L27.60 6.62Q26.78 6.62 26.16 5.99Q25.54 5.37 25.54 4.46ZM26.33 4.16L26.33 4.16L28.54 4.16Q28.54 3.96 28.51 3.75Q28.47 3.53 28.37 3.22Q28.28 2.92 28.05 2.73Q27.82 2.54 27.48 2.54L27.48 2.54Q27.33 2.54 27.17 2.60Q27.01 2.67 26.81 2.82Q26.62 2.98 26.48 3.33Q26.34 3.68 26.33 4.16ZM32.00 4.78L29.52 4.78L29.52 4.22L32.00 4.22L32.00 4.78ZM33.44 6.00Q32.85 5.38 32.85 4.50Q32.85 3.61 33.43 2.97Q34.01 2.33 34.87 2.33L34.87 2.33Q35.44 2.33 35.87 2.60Q36.30 2.87 36.30 3.33L36.30 3.33Q36.30 3.54 36.18 3.65Q36.06 3.77 35.87 3.77L35.87 3.77Q35.67 3.77 35.56 3.65Q35.44 3.53 35.44 3.34L35.44 3.34Q35.44 3.26 35.47 3.18Q35.49 3.09 35.60 3.01Q35.70 2.92 35.88 2.91L35.88 2.91Q35.54 2.57 34.90 2.57L34.90 2.57Q34.89 2.57 34.88 2.57L34.88 2.57Q34.41 2.57 34.01 3.01Q33.62 3.46 33.62 4.48L33.62 4.48Q33.62 5.01 33.75 5.40Q33.88 5.79 34.10 5.99Q34.31 6.19 34.52 6.29Q34.73 6.38 34.93 6.38L34.93 6.38Q35.85 6.38 36.16 5.40L36.16 5.40Q36.19 5.31 36.28 5.31L36.28 5.31Q36.40 5.31 36.40 5.40L36.40 5.40Q36.40 5.45 36.37 5.56Q36.33 5.68 36.21 5.87Q36.10 6.06 35.94 6.22Q35.78 6.38 35.49 6.50Q35.21 6.62 34.85 6.62L34.85 6.62Q34.03 6.62 33.44 6.00ZM37.55 6.01Q36.93 5.40 36.93 4.51Q36.93 3.63 37.53 2.98Q38.14 2.33 39.00 2.33L39.00 2.33Q39.85 2.33 40.46 2.97Q41.07 3.62 41.07 4.52L41.07 4.52Q41.07 5.40 40.46 6.01Q39.84 6.62 38.99 6.62L38.99 6.62Q38.17 6.62 37.55 6.01ZM37.71 4.44L37.71 4.44Q37.71 5.35 37.94 5.76L37.94 5.76Q38.31 6.38 39.00 6.38L39.00 6.38Q39.35 6.38 39.64 6.19Q39.93 6.01 40.09 5.69L40.09 5.69Q40.29 5.28 40.29 4.44L40.29 4.44Q40.29 3.54 40.05 3.14L40.05 3.14Q39.68 2.54 38.99 2.54L38.99 2.54Q38.69 2.54 38.40 2.70Q38.11 2.85 37.93 3.16L37.93 3.16Q37.71 3.57 37.71 4.44ZM41.64 6.51L41.64 6.51L41.64 6.22Q42.13 6.22 42.25 6.16Q42.36 6.10 42.36 5.80L42.36 5.80L42.36 3.30Q42.36 2.95 42.24 2.87Q42.12 2.78 41.64 2.78L41.64 2.78L41.64 2.49L42.95 2.39L42.95 3.37Q43.39 2.39 44.33 2.39L44.33 2.39Q45.03 2.39 45.31 2.73L45.31 2.73Q45.52 2.97 45.56 3.23Q45.60 3.49 45.60 4.16L45.60 4.16L45.60 5.94Q45.61 6.14 45.76 6.18Q45.91 6.22 46.33 6.22L46.33 6.22L46.33 6.51Q45.38 6.48 45.28 6.48L45.28 6.48Q45.21 6.48 44.23 6.51L44.23 6.51L44.23 6.22Q44.73 6.22 44.84 6.16Q44.96 6.10 44.96 5.80L44.96 5.80L44.96 3.63Q44.96 3.15 44.81 2.87Q44.67 2.59 44.27 2.59L44.27 2.59Q43.78 2.59 43.40 3.00Q43.01 3.40 43.01 4.09L43.01 4.09L43.01 5.80Q43.01 6.10 43.13 6.16Q43.24 6.22 43.73 6.22L43.73 6.22L43.73 6.51Q42.78 6.48 42.69 6.48L42.69 6.48Q42.62 6.48 41.64 6.51ZM47.49 2.78L46.69 2.78L46.69 2.57Q47.12 2.56 47.41 2.25Q47.69 1.95 47.79 1.58Q47.89 1.20 47.90 0.77L47.90 0.77L48.13 0.77L48.13 2.49L49.46 2.49L49.46 2.78L48.13 2.78L48.13 5.37Q48.13 6.38 48.76 6.38L48.76 6.38Q49.03 6.38 49.20 6.10Q49.38 5.83 49.38 5.34L49.38 5.34L49.38 4.82L49.61 4.82L49.61 5.35Q49.61 5.86 49.38 6.24Q49.15 6.62 48.69 6.62L48.69 6.62Q48.52 6.62 48.35 6.57Q48.19 6.53 47.97 6.42Q47.75 6.31 47.62 6.03Q47.49 5.76 47.49 5.35L47.49 5.35L47.49 2.78ZM50.39 6.51L50.39 6.51L50.39 6.22Q50.89 6.22 51.01 6.16Q51.12 6.10 51.12 5.80L51.12 5.80L51.12 3.30Q51.12 2.95 51.00 2.87Q50.88 2.78 50.39 2.78L50.39 2.78L50.39 2.49L51.69 2.39L51.69 3.41Q51.82 3.01 52.10 2.70Q52.38 2.39 52.84 2.39L52.84 2.39Q53.14 2.39 53.33 2.56Q53.53 2.72 53.53 2.96L53.53 2.96Q53.53 3.16 53.40 3.26Q53.28 3.37 53.13 3.37L53.13 3.37Q52.96 3.37 52.84 3.26Q52.73 3.15 52.73 2.97L52.73 2.97Q52.73 2.85 52.78 2.76Q52.83 2.67 52.87 2.64Q52.91 2.61 52.94 2.60L52.94 2.60Q52.92 2.59 52.84 2.59L52.84 2.59Q52.32 2.59 52.03 3.11Q51.74 3.62 51.74 4.35L51.74 4.35L51.74 5.78Q51.74 6.05 51.85 6.14Q51.96 6.22 52.45 6.22L52.45 6.22L52.64 6.22L52.64 6.51Q52.27 6.48 51.46 6.48L51.46 6.48Q51.35 6.48 51.17 6.49Q50.99 6.49 50.76 6.50Q50.52 6.51 50.39 6.51ZM54.66 6.01Q54.04 5.40 54.04 4.51Q54.04 3.63 54.64 2.98Q55.25 2.33 56.11 2.33L56.11 2.33Q56.96 2.33 57.57 2.97Q58.18 3.62 58.18 4.52L58.18 4.52Q58.18 5.40 57.56 6.01Q56.95 6.62 56.10 6.62L56.10 6.62Q55.27 6.62 54.66 6.01ZM54.81 4.44L54.81 4.44Q54.81 5.35 55.05 5.76L55.05 5.76Q55.41 6.38 56.11 6.38L56.11 6.38Q56.46 6.38 56.75 6.19Q57.04 6.01 57.20 5.69L57.20 5.69Q57.40 5.28 57.40 4.44L57.40 4.44Q57.40 3.54 57.16 3.14L57.16 3.14Q56.79 2.54 56.10 2.54L56.10 2.54Q55.80 2.54 55.51 2.70Q55.21 2.85 55.04 3.16L55.04 3.16Q54.81 3.57 54.81 4.44ZM58.76 6.51L58.76 6.51L58.76 6.22Q59.25 6.22 59.37 6.16Q59.48 6.10 59.48 5.80L59.48 5.80L59.48 0.95Q59.48 0.60 59.36 0.51Q59.24 0.43 58.76 0.43L58.76 0.43L58.76 0.14L60.10 0.04L60.10 5.80Q60.10 6.10 60.21 6.16Q60.33 6.22 60.82 6.22L60.82 6.22L60.82 6.51Q60.71 6.51 60.47 6.50Q60.24 6.49 60.06 6.49Q59.89 6.48 59.79 6.48L59.79 6.48Q59.68 6.48 58.76 6.51ZM61.34 6.51L61.34 6.51L61.34 6.22Q61.84 6.22 61.95 6.16Q62.06 6.10 62.06 5.80L62.06 5.80L62.06 0.95Q62.06 0.60 61.94 0.51Q61.82 0.43 61.34 0.43L61.34 0.43L61.34 0.14L62.68 0.04L62.68 5.80Q62.68 6.10 62.80 6.16Q62.92 6.22 63.41 6.22L63.41 6.22L63.41 6.51Q63.29 6.51 63.06 6.50Q62.82 6.49 62.65 6.49Q62.47 6.48 62.37 6.48L62.37 6.48Q62.26 6.48 61.34 6.51ZM63.87 4.46L63.87 4.46Q63.87 3.58 64.44 2.95Q65.00 2.33 65.81 2.33L65.81 2.33Q66.63 2.33 67.06 2.86Q67.49 3.39 67.49 4.16L67.49 4.16Q67.49 4.30 67.45 4.33Q67.41 4.36 67.25 4.36L67.25 4.36L64.65 4.36Q64.65 5.31 64.93 5.76L64.93 5.76Q65.32 6.38 65.98 6.38L65.98 6.38Q66.07 6.38 66.18 6.36Q66.29 6.34 66.52 6.26Q66.74 6.18 66.94 5.97Q67.13 5.76 67.25 5.42L67.25 5.42Q67.27 5.29 67.36 5.29L67.36 5.29Q67.49 5.29 67.49 5.40L67.49 5.40Q67.49 5.48 67.40 5.67Q67.31 5.85 67.14 6.07Q66.97 6.29 66.65 6.45Q66.32 6.62 65.93 6.62L65.93 6.62Q65.11 6.62 64.49 5.99Q63.87 5.37 63.87 4.46ZM64.66 4.16L64.66 4.16L66.87 4.16Q66.87 3.96 66.84 3.75Q66.80 3.53 66.71 3.22Q66.61 2.92 66.38 2.73Q66.15 2.54 65.81 2.54L65.81 2.54Q65.66 2.54 65.50 2.60Q65.34 2.67 65.14 2.82Q64.95 2.98 64.81 3.33Q64.68 3.68 64.66 4.16ZM68.07 4.51L68.07 4.51Q68.07 3.62 68.69 3.00Q69.31 2.39 70.15 2.39L70.15 2.39Q70.86 2.39 71.33 2.97L71.33 2.97L71.33 0.95Q71.33 0.60 71.21 0.51Q71.09 0.43 70.60 0.43L70.60 0.43L70.60 0.14L71.95 0.04L71.95 5.70Q71.95 6.05 72.07 6.14Q72.19 6.22 72.67 6.22L72.67 6.22L72.67 6.51L71.30 6.62L71.30 6.00Q70.82 6.61 70.05 6.62L70.05 6.62Q69.25 6.62 68.66 6.00Q68.07 5.39 68.07 4.51ZM68.85 4.52L68.85 4.52Q68.85 5.38 69.12 5.81L69.12 5.81Q69.49 6.41 70.10 6.41L70.10 6.41Q70.79 6.41 71.20 5.76L71.20 5.76Q71.31 5.60 71.30 5.41L71.30 5.41L71.30 3.50Q71.30 3.31 71.20 3.15L71.20 3.15Q70.82 2.59 70.19 2.59L70.19 2.59Q69.54 2.59 69.14 3.19L69.14 3.19Q68.85 3.64 68.85 4.52Z"
                />
                <path
                    d="M23.98 18.59L23.98 18.59L23.98 17.36Q23.98 17.26 23.98 17.22Q23.99 17.19 24.02 17.16Q24.04 17.13 24.10 17.13L24.10 17.13Q24.16 17.13 24.19 17.16Q24.21 17.19 24.23 17.29L24.23 17.29Q24.37 17.93 24.68 18.27Q24.98 18.61 25.53 18.61L25.53 18.61Q26.05 18.61 26.32 18.38Q26.58 18.15 26.58 17.77L26.58 17.77Q26.58 17.08 25.61 16.91L25.61 16.91Q25.05 16.79 24.82 16.72Q24.59 16.64 24.38 16.48L24.38 16.48Q23.98 16.15 23.98 15.68Q23.98 15.22 24.33 14.88Q24.69 14.53 25.47 14.53L25.47 14.53Q25.99 14.53 26.35 14.80L26.35 14.80Q26.46 14.72 26.51 14.65L26.51 14.65Q26.63 14.53 26.70 14.53L26.70 14.53Q26.77 14.53 26.78 14.58Q26.80 14.63 26.80 14.76L26.80 14.76L26.80 15.70Q26.80 15.81 26.79 15.84Q26.79 15.88 26.76 15.90Q26.73 15.93 26.67 15.93L26.67 15.93Q26.57 15.93 26.56 15.84L26.56 15.84Q26.49 14.71 25.47 14.71L25.47 14.71Q24.92 14.71 24.67 14.92Q24.43 15.14 24.43 15.42L24.43 15.42Q24.43 15.58 24.50 15.70Q24.58 15.82 24.68 15.89Q24.77 15.97 24.96 16.03Q25.14 16.10 25.25 16.12Q25.36 16.14 25.58 16.19L25.58 16.19Q26.32 16.33 26.64 16.64L26.64 16.64Q27.03 17.03 27.03 17.52L27.03 17.52Q27.03 18.08 26.66 18.45Q26.28 18.82 25.53 18.82L25.53 18.82Q24.92 18.82 24.50 18.42L24.50 18.42Q24.45 18.47 24.40 18.52Q24.36 18.57 24.35 18.59Q24.33 18.60 24.33 18.62Q24.32 18.63 24.31 18.64L24.31 18.64Q24.13 18.82 24.08 18.82L24.08 18.82Q24.01 18.82 23.99 18.77Q23.98 18.73 23.98 18.59ZM28.22 18.21Q27.60 17.61 27.60 16.72Q27.60 15.83 28.21 15.18Q28.81 14.53 29.68 14.53L29.68 14.53Q30.52 14.53 31.13 15.18Q31.74 15.82 31.74 16.72L31.74 16.72Q31.74 17.60 31.13 18.21Q30.52 18.82 29.67 18.82L29.67 18.82Q28.84 18.82 28.22 18.21ZM28.38 16.64L28.38 16.64Q28.38 17.55 28.62 17.96L28.62 17.96Q28.98 18.59 29.68 18.59L29.68 18.59Q30.02 18.59 30.31 18.40Q30.60 18.21 30.76 17.90L30.76 17.90Q30.97 17.49 30.97 16.64L30.97 16.64Q30.97 15.75 30.72 15.35L30.72 15.35Q30.36 14.74 29.67 14.74L29.67 14.74Q29.37 14.74 29.07 14.90Q28.78 15.06 28.60 15.37L28.60 15.37Q28.38 15.78 28.38 16.64ZM32.31 14.99L32.31 14.99L32.31 14.69L33.68 14.59L33.68 17.69Q33.68 17.92 33.70 18.05Q33.72 18.18 33.79 18.33Q33.87 18.48 34.05 18.54Q34.22 18.61 34.50 18.61L34.50 18.61Q35.01 18.61 35.32 18.20Q35.63 17.78 35.63 17.17L35.63 17.17L35.63 15.50Q35.63 15.16 35.51 15.07Q35.39 14.99 34.90 14.99L34.90 14.99L34.90 14.69L36.28 14.59L36.28 17.91Q36.28 18.25 36.40 18.34Q36.52 18.43 37.01 18.43L37.01 18.43L37.01 18.72L35.66 18.82L35.66 17.98Q35.27 18.82 34.46 18.82L34.46 18.82Q34.05 18.82 33.77 18.72Q33.49 18.61 33.35 18.48Q33.20 18.35 33.13 18.10Q33.05 17.85 33.04 17.70Q33.04 17.54 33.04 17.24L33.04 17.24L33.04 15.84Q33.04 15.21 32.94 15.10Q32.85 14.99 32.31 14.99ZM37.45 18.72L37.45 18.72L37.45 18.43Q37.94 18.43 38.06 18.37Q38.18 18.31 38.18 18.01L38.18 18.01L38.18 15.50Q38.18 15.16 38.06 15.07Q37.93 14.99 37.45 14.99L37.45 14.99L37.45 14.69L38.75 14.59L38.75 15.62Q38.88 15.22 39.16 14.91Q39.44 14.59 39.89 14.59L39.89 14.59Q40.20 14.59 40.39 14.76Q40.58 14.93 40.58 15.16L40.58 15.16Q40.58 15.37 40.46 15.47Q40.33 15.57 40.18 15.57L40.18 15.57Q40.01 15.57 39.90 15.47Q39.78 15.36 39.78 15.17L39.78 15.17Q39.78 15.06 39.83 14.97Q39.89 14.88 39.93 14.85Q39.97 14.82 39.99 14.81L39.99 14.81Q39.98 14.80 39.89 14.80L39.89 14.80Q39.38 14.80 39.09 15.31Q38.79 15.82 38.79 16.55L38.79 16.55L38.79 17.99Q38.79 18.26 38.90 18.34Q39.01 18.43 39.50 18.43L39.50 18.43L39.70 18.43L39.70 18.72Q39.32 18.69 38.51 18.69L38.51 18.69Q38.40 18.69 38.22 18.70Q38.04 18.70 37.81 18.71Q37.58 18.72 37.45 18.72ZM41.74 18.21Q41.15 17.59 41.15 16.70Q41.15 15.81 41.74 15.17Q42.32 14.53 43.18 14.53L43.18 14.53Q43.75 14.53 44.17 14.81Q44.60 15.08 44.60 15.54L44.60 15.54Q44.60 15.74 44.48 15.86Q44.36 15.97 44.17 15.97L44.17 15.97Q43.98 15.97 43.86 15.85Q43.75 15.73 43.75 15.55L43.75 15.55Q43.75 15.46 43.77 15.38Q43.80 15.30 43.90 15.21Q44.01 15.13 44.18 15.11L44.18 15.11Q43.85 14.77 43.20 14.77L43.20 14.77Q43.19 14.77 43.18 14.77L43.18 14.77Q42.71 14.77 42.32 15.22Q41.93 15.66 41.93 16.69L41.93 16.69Q41.93 17.22 42.06 17.61Q42.19 18.00 42.40 18.20Q42.62 18.40 42.82 18.49Q43.03 18.59 43.24 18.59L43.24 18.59Q44.16 18.59 44.47 17.61L44.47 17.61Q44.49 17.51 44.58 17.51L44.58 17.51Q44.71 17.51 44.71 17.61L44.71 17.61Q44.71 17.65 44.67 17.77Q44.63 17.89 44.52 18.08Q44.41 18.26 44.24 18.42Q44.08 18.59 43.80 18.70Q43.51 18.82 43.16 18.82L43.16 18.82Q42.34 18.82 41.74 18.21ZM45.24 16.66L45.24 16.66Q45.24 15.78 45.80 15.16Q46.37 14.53 47.18 14.53L47.18 14.53Q48.00 14.53 48.42 15.07Q48.85 15.60 48.85 16.37L48.85 16.37Q48.85 16.51 48.81 16.53Q48.78 16.56 48.62 16.56L48.62 16.56L46.01 16.56Q46.01 17.51 46.29 17.96L46.29 17.96Q46.68 18.59 47.35 18.59L47.35 18.59Q47.44 18.59 47.55 18.57Q47.66 18.55 47.88 18.47Q48.10 18.39 48.30 18.18Q48.49 17.96 48.61 17.62L48.61 17.62Q48.64 17.49 48.73 17.50L48.73 17.50Q48.85 17.50 48.85 17.61L48.85 17.61Q48.85 17.69 48.76 17.87Q48.67 18.06 48.50 18.28Q48.33 18.49 48.01 18.66Q47.68 18.82 47.29 18.82L47.29 18.82Q46.47 18.82 45.85 18.20Q45.24 17.58 45.24 16.66ZM46.02 16.37L46.02 16.37L48.23 16.37Q48.23 16.17 48.20 15.95Q48.17 15.73 48.07 15.43Q47.97 15.13 47.74 14.94Q47.51 14.74 47.18 14.74L47.18 14.74Q47.03 14.74 46.86 14.81Q46.70 14.87 46.51 15.03Q46.31 15.18 46.17 15.53Q46.04 15.88 46.02 16.37Z"
                />
            </g>
        </g>
    </g>
    <g class="">
        <use
            xlink:href="#node_ocirc"
            fill="none"
            stroke="#000"
            style="color: #000;"
            transform="matrix(1,0,0,1,460.6102659842519,-266.94878913385827)"
            class=""
        />
        <g
            class="pointerNone"
            transform="matrix(1,0,0,1,455.4632468484048,-271.1220336448489)"
            fill="#000"
        >
            <g
                transform="matrix(0.013459567746932298,0,0,0.013464476420654596,0,0)"
            >
                <g
                    stroke="currentColor"
                    fill="inherit"
                    stroke-width="0"
                    transform="scale(1,-1)"
                >
                    <g>
                        <g transform="translate(518,-150) scale(0.707)">
                            <use xlink:href="#MJX-246-TEX-N-69" />
                            <use
                                xlink:href="#MJX-246-TEX-N-6E"
                                transform="translate(278,0)"
                            />
                        </g>
                        <use xlink:href="#MJX-246-TEX-I-1D463" />
                    </g>
                </g>
            </g>
        </g>
    </g>
    <g style="" class="">
        <use
            xlink:href="#path_american-resistor"
            fill="none"
            stroke="#000"
            style="color: #000;"
            transform="matrix(4.286263797015736e-17,0.7,-0.7,4.286263797015736e-17,733.4869211181102,-247.05571023622053)"
        />
        <line
            x1="727.5590551181102"
            y1="-255.11811023622047"
            x2="727.5590551181102"
            y2="-246.31182023622054"
            fill="none"
            stroke-width="0.5"
            stroke="#000"
        />
        <line
            x1="727.5590551181102"
            y1="-207.8741102362206"
            x2="727.5590551181102"
            y2="-216.68038623622053"
            fill="none"
            stroke-width="0.5"
            stroke="#000"
        />
        <g
            class="pointerNone"
            transform="matrix(1,0,0,1,702.2725614005346,-228.88389662461776)"
            fill="#000"
        >
            <g
                transform="matrix(0.013460251492083278,0,0,0.013462763194993899,0,0)"
            >
                <g
                    stroke="currentColor"
                    fill="inherit"
                    stroke-width="0"
                    transform="scale(1,-1)"
                >
                    <g>
                        <g transform="translate(792,-150) scale(0.707)">
                            <use xlink:href="#MJX-254-TEX-I-1D454" />
                        </g>
                        <use xlink:href="#MJX-254-TEX-I-1D445" />
                    </g>
                </g>
            </g>
        </g>
    </g>
    <g class="">
        <use
            xlink:href="#node_ground"
            fill="none"
            stroke="#000"
            style="color: #000;"
            transform="matrix(1,0,0,1,671.8846206299213,-208.13971574803148)"
        />
    </g>
    <g style="" class="">
        <use
            xlink:href="#path_american-resistor"
            fill="none"
            stroke="#000"
            style="color: #000;"
            transform="matrix(0.000012057110622555998,0.6999999998961615,-0.6999999998961615,0.000012057110622555998,894.1161609857917,-247.43367005464225)"
        />
        <line
            x1="888.1881496062992"
            y1="-255.87392015748037"
            x2="888.1883077997625"
            y2="-246.68967795055815"
            fill="none"
            stroke-width="0.5"
            stroke="#000"
        />
        <line
            x1="888.1889763779527"
            y1="-207.87401574803147"
            x2="888.1888181847305"
            y2="-217.0582439549537"
            fill="none"
            stroke-width="0.5"
            stroke="#000"
        />
        <g
            class="pointerNone"
            transform="matrix(1,0,0,1,898.2078049123227,-228.29247074126633)"
            fill="#000"
        >
            <g
                transform="matrix(0.013459207789286432,0,0,0.01346350080901792,0,0)"
            >
                <g
                    stroke="currentColor"
                    fill="inherit"
                    stroke-width="0"
                    transform="scale(1,-1)"
                >
                    <g>
                        <g transform="translate(792,-150) scale(0.707)">
                            <use xlink:href="#MJX-255-TEX-I-1D43F" />
                        </g>
                        <use xlink:href="#MJX-255-TEX-I-1D445" />
                    </g>
                </g>
            </g>
        </g>
    </g>
    <g class="">
        <use
            xlink:href="#node_ground"
            fill="none"
            stroke="#000"
            style="color: #000;"
            transform="matrix(1,0,0,1,879.7586363779529,-208.13962913385822)"
        />
    </g>
    <g class="">
        <rect
            width="74.25721784776906"
            height="74.25766666666667"
            style=""
            x="0.6666666666666643"
            y="0.6666666666666643"
            transform="matrix(1,0,0,1,755.9055118110235,-302.36242913385837)"
            stroke-dasharray="1pt 0pt"
            stroke-opacity="0.7"
            stroke-width="1.3333333333333333"
            stroke="#000"
            fill-opacity="1"
            fill="none"
        />
    </g>
    <g class="">
        <use
            xlink:href="#node_ground"
            fill="none"
            stroke="#000"
            style="color: #000;"
            transform="matrix(1,0,0,1,785.270439527559,-208.13971574803148)"
        />
    </g>
    <g class="">
        <polyline
            points="793.700779527559,-226.77201574803144 793.700779527559,-207.87401574803147"
            fill="none"
            stroke-dasharray="0.4pt 0pt"
            stroke-opacity="1"
            stroke-width="0.5333333333333333"
            stroke="#000"
        />
    </g>
    <g class="">
        <polyline
            points="753.1555118110236,-245.66929133858272 746.4565118110236,-245.66929133858272 746.4566929133858,-198.42519685039372"
            fill="none"
            stroke-dasharray="0.6pt 0pt"
            stroke-opacity="1"
            stroke-width="0.7999999999999999"
            stroke="#000"
        />
        <g
            stroke-opacity="1"
            stroke="#000"
            fill-opacity="1"
            fill="#000"
            transform="matrix(5.5,0,0,5.5,750.4055118110236,-248.41929133858272)"
            stroke-width="0"
        >
            <path
                stroke="none"
                d="M 0 0.125 C 0.375 0.375 1 0.5 1 0.5 C 1 0.5 0.375 0.625 0 0.875 z"
            />
        </g>
    </g>
    <g class="">
        <g
            class="pointerNone"
            transform="matrix(1,0,0,1,723.0324229987588,-185.38835476702593)"
            fill="#000"
        >
            <g
                transform="matrix(0.013461062511277582,0,0,0.01346350080901792,0,0)"
            >
                <g
                    stroke="currentColor"
                    fill="inherit"
                    stroke-width="0"
                    transform="scale(1,-1)"
                >
                    <g>
                        <g>
                            <g transform="translate(792,-150) scale(0.707)">
                                <use xlink:href="#MJX-266-TEX-N-69" />
                                <use
                                    xlink:href="#MJX-266-TEX-N-6E"
                                    transform="translate(278,0)"
                                />
                            </g>
                            <use xlink:href="#MJX-266-TEX-I-1D445" />
                        </g>
                        <g transform="translate(1709.5,0)">
                            <use xlink:href="#MJX-266-TEX-N-2192" />
                        </g>
                        <g transform="translate(2987.3,0)">
                            <use xlink:href="#MJX-266-TEX-N-30" />
                        </g>
                    </g>
                </g>
            </g>
        </g>
    </g>
    <g class="">
        <g
            class="pointerNone"
            transform="matrix(1,0,0,1,828.782192621175,-185.44191693133257)"
            fill="#000"
        >
            <g
                transform="matrix(0.013461577048284344,0,0,0.013458896619097443,0,0)"
            >
                <g
                    stroke="currentColor"
                    fill="inherit"
                    stroke-width="0"
                    transform="scale(1,-1)"
                >
                    <g>
                        <g transform="translate(792,-150) scale(0.707)">
                            <use xlink:href="#MJX-257-TEX-N-6F" />
                            <use
                                xlink:href="#MJX-257-TEX-N-75"
                                transform="translate(500,0)"
                            />
                            <use
                                xlink:href="#MJX-257-TEX-N-74"
                                transform="translate(1056,0)"
                            />
                        </g>
                        <use xlink:href="#MJX-257-TEX-I-1D445" />
                    </g>
                </g>
            </g>
        </g>
    </g>
    <g class="">
        <polyline
            points="840.944881889764,-198.42519685039372 840.944976377953,-198.42519685039372 840.944976377953,-245.6689291338582 833.7959763779529,-245.6689291338582"
            fill="none"
            stroke-dasharray="0.4pt 0pt"
            stroke-opacity="1"
            stroke-width="0.5333333333333333"
            stroke="#000"
        />
        <g
            stroke-opacity="1"
            stroke="#000"
            fill-opacity="1"
            fill="#000"
            transform="matrix(-4.6,5.633375276077824e-16,-5.633375276077824e-16,-4.6,836.095976377953,-243.3689291338582)"
            stroke-width="0"
        >
            <path
                stroke="none"
                d="M 0 0.125 C 0.375 0.375 1 0.5 1 0.5 C 1 0.5 0.375 0.625 0 0.875 z"
            />
        </g>
    </g>
    <g class="">
        <use
            xlink:href="#node_nmos_arrowmos"
            fill="none"
            stroke="#000"
            style="color: #000;"
            transform="matrix(0.5,0,0,0.5,784.363584527559,-293.9348757480316)"
        />
    </g>
    <g class="">
        <g transform="matrix(1,0,0,1,0,0)" style="pointer-events: none;">
            <g
                fill="#000"
                transform="matrix(1,0,0,1,757.2386128608923,-255.02314567642009)"
            />
            <g
                fill="#000"
                transform="matrix(1,0,0,1,757.2386128608923,-255.02314567642009)"
            >
                <path
                    d="M0.92 6.00Q0.32 5.38 0.32 4.50Q0.32 3.61 0.91 2.97Q1.49 2.33 2.35 2.33L2.35 2.33Q2.92 2.33 3.34 2.60Q3.77 2.87 3.77 3.33L3.77 3.33Q3.77 3.54 3.65 3.65Q3.53 3.77 3.34 3.77L3.34 3.77Q3.15 3.77 3.03 3.65Q2.92 3.53 2.92 3.34L2.92 3.34Q2.92 3.26 2.94 3.18Q2.97 3.09 3.07 3.01Q3.18 2.92 3.35 2.91L3.35 2.91Q3.02 2.57 2.37 2.57L2.37 2.57Q2.36 2.57 2.36 2.57L2.36 2.57Q1.88 2.57 1.49 3.01Q1.10 3.46 1.10 4.48L1.10 4.48Q1.10 5.01 1.23 5.40Q1.36 5.79 1.57 5.99Q1.79 6.19 2.00 6.29Q2.21 6.38 2.41 6.38L2.41 6.38Q3.33 6.38 3.64 5.40L3.64 5.40Q3.66 5.31 3.75 5.31L3.75 5.31Q3.88 5.31 3.88 5.40L3.88 5.40Q3.88 5.45 3.84 5.56Q3.80 5.68 3.69 5.87Q3.58 6.06 3.41 6.22Q3.25 6.38 2.97 6.50Q2.68 6.62 2.33 6.62L2.33 6.62Q1.51 6.62 0.92 6.00ZM4.45 2.78L4.45 2.78L4.45 2.49L5.82 2.39L5.82 5.49Q5.82 5.71 5.84 5.84Q5.86 5.97 5.93 6.12Q6.01 6.27 6.18 6.34Q6.36 6.41 6.64 6.41L6.64 6.41Q7.15 6.41 7.46 5.99Q7.77 5.58 7.77 4.96L7.77 4.96L7.77 3.30Q7.77 2.95 7.65 2.87Q7.52 2.78 7.04 2.78L7.04 2.78L7.04 2.49L8.41 2.39L8.41 5.70Q8.41 6.05 8.53 6.14Q8.65 6.22 9.14 6.22L9.14 6.22L9.14 6.51L7.80 6.62L7.80 5.77Q7.40 6.61 6.59 6.62L6.59 6.62Q6.18 6.62 5.90 6.51Q5.62 6.41 5.48 6.28Q5.34 6.15 5.27 5.90Q5.19 5.65 5.18 5.49Q5.17 5.34 5.17 5.04L5.17 5.04L5.17 3.64Q5.17 3.00 5.08 2.89Q4.99 2.78 4.45 2.78ZM9.58 6.51L9.58 6.51L9.58 6.22Q10.08 6.22 10.20 6.16Q10.31 6.10 10.31 5.80L10.31 5.80L10.31 3.30Q10.31 2.95 10.19 2.87Q10.07 2.78 9.58 2.78L9.58 2.78L9.58 2.49L10.88 2.39L10.88 3.41Q11.01 3.01 11.29 2.70Q11.57 2.39 12.03 2.39L12.03 2.39Q12.33 2.39 12.52 2.56Q12.72 2.72 12.72 2.96L12.72 2.96Q12.72 3.16 12.59 3.26Q12.47 3.37 12.32 3.37L12.32 3.37Q12.15 3.37 12.03 3.26Q11.92 3.15 11.92 2.97L11.92 2.97Q11.92 2.85 11.97 2.76Q12.02 2.67 12.06 2.64Q12.10 2.61 12.13 2.60L12.13 2.60Q12.11 2.59 12.03 2.59L12.03 2.59Q11.52 2.59 11.22 3.11Q10.93 3.62 10.93 4.35L10.93 4.35L10.93 5.78Q10.93 6.05 11.04 6.14Q11.15 6.22 11.64 6.22L11.64 6.22L11.83 6.22L11.83 6.51Q11.46 6.48 10.65 6.48L10.65 6.48Q10.54 6.48 10.36 6.49Q10.18 6.49 9.95 6.50Q9.72 6.51 9.58 6.51ZM13.23 6.51L13.23 6.51L13.23 6.22Q13.73 6.22 13.84 6.16Q13.96 6.10 13.96 5.80L13.96 5.80L13.96 3.30Q13.96 2.95 13.84 2.87Q13.72 2.78 13.23 2.78L13.23 2.78L13.23 2.49L14.53 2.39L14.53 3.41Q14.66 3.01 14.94 2.70Q15.22 2.39 15.68 2.39L15.68 2.39Q15.98 2.39 16.17 2.56Q16.36 2.72 16.36 2.96L16.36 2.96Q16.36 3.16 16.24 3.26Q16.11 3.37 15.96 3.37L15.96 3.37Q15.79 3.37 15.68 3.26Q15.56 3.15 15.56 2.97L15.56 2.97Q15.56 2.85 15.61 2.76Q15.67 2.67 15.71 2.64Q15.75 2.61 15.78 2.60L15.78 2.60Q15.76 2.59 15.68 2.59L15.68 2.59Q15.16 2.59 14.87 3.11Q14.57 3.62 14.57 4.35L14.57 4.35L14.57 5.78Q14.57 6.05 14.69 6.14Q14.80 6.22 15.28 6.22L15.28 6.22L15.48 6.22L15.48 6.51Q15.11 6.48 14.30 6.48L14.30 6.48Q14.18 6.48 14.00 6.49Q13.83 6.49 13.59 6.50Q13.36 6.51 13.23 6.51ZM16.87 4.46L16.87 4.46Q16.87 3.58 17.44 2.95Q18.01 2.33 18.82 2.33L18.82 2.33Q19.64 2.33 20.06 2.86Q20.49 3.39 20.49 4.16L20.49 4.16Q20.49 4.30 20.45 4.33Q20.42 4.36 20.26 4.36L20.26 4.36L17.65 4.36Q17.65 5.31 17.93 5.76L17.93 5.76Q18.32 6.38 18.98 6.38L18.98 6.38Q19.08 6.38 19.19 6.36Q19.29 6.34 19.52 6.26Q19.74 6.18 19.94 5.97Q20.13 5.76 20.25 5.42L20.25 5.42Q20.27 5.29 20.37 5.29L20.37 5.29Q20.49 5.29 20.49 5.40L20.49 5.40Q20.49 5.48 20.40 5.67Q20.31 5.85 20.14 6.07Q19.97 6.29 19.65 6.45Q19.32 6.62 18.93 6.62L18.93 6.62Q18.11 6.62 17.49 5.99Q16.87 5.37 16.87 4.46ZM17.66 4.16L17.66 4.16L19.87 4.16Q19.87 3.96 19.84 3.75Q19.81 3.53 19.71 3.22Q19.61 2.92 19.38 2.73Q19.15 2.54 18.82 2.54L18.82 2.54Q18.67 2.54 18.50 2.60Q18.34 2.67 18.15 2.82Q17.95 2.98 17.81 3.33Q17.68 3.68 17.66 4.16ZM21.06 6.51L21.06 6.51L21.06 6.22Q21.56 6.22 21.67 6.16Q21.78 6.10 21.78 5.80L21.78 5.80L21.78 3.30Q21.78 2.95 21.66 2.87Q21.54 2.78 21.06 2.78L21.06 2.78L21.06 2.49L22.37 2.39L22.37 3.37Q22.81 2.39 23.75 2.39L23.75 2.39Q24.45 2.39 24.73 2.73L24.73 2.73Q24.94 2.97 24.98 3.23Q25.02 3.49 25.02 4.16L25.02 4.16L25.02 5.94Q25.03 6.14 25.18 6.18Q25.33 6.22 25.75 6.22L25.75 6.22L25.75 6.51Q24.80 6.48 24.70 6.48L24.70 6.48Q24.63 6.48 23.65 6.51L23.65 6.51L23.65 6.22Q24.15 6.22 24.26 6.16Q24.38 6.10 24.38 5.80L24.38 5.80L24.38 3.63Q24.38 3.15 24.23 2.87Q24.09 2.59 23.69 2.59L23.69 2.59Q23.21 2.59 22.82 3.00Q22.43 3.40 22.43 4.09L22.43 4.09L22.43 5.80Q22.43 6.10 22.55 6.16Q22.66 6.22 23.15 6.22L23.15 6.22L23.15 6.51Q22.20 6.48 22.11 6.48L22.11 6.48Q22.04 6.48 21.06 6.51ZM26.91 2.78L26.11 2.78L26.11 2.57Q26.54 2.56 26.83 2.25Q27.11 1.95 27.21 1.58Q27.31 1.20 27.32 0.77L27.32 0.77L27.55 0.77L27.55 2.49L28.88 2.49L28.88 2.78L27.55 2.78L27.55 5.37Q27.55 6.38 28.18 6.38L28.18 6.38Q28.45 6.38 28.62 6.10Q28.80 5.83 28.80 5.34L28.80 5.34L28.80 4.82L29.03 4.82L29.03 5.35Q29.03 5.86 28.80 6.24Q28.57 6.62 28.11 6.62L28.11 6.62Q27.94 6.62 27.77 6.57Q27.61 6.53 27.39 6.42Q27.17 6.31 27.04 6.03Q26.91 5.76 26.91 5.35L26.91 5.35L26.91 2.78ZM32.13 4.78L29.64 4.78L29.64 4.22L32.13 4.22L32.13 4.78ZM33.57 6.00Q32.98 5.38 32.98 4.50Q32.98 3.61 33.56 2.97Q34.14 2.33 35.00 2.33L35.00 2.33Q35.57 2.33 36.00 2.60Q36.43 2.87 36.43 3.33L36.43 3.33Q36.43 3.54 36.30 3.65Q36.18 3.77 36.00 3.77L36.00 3.77Q35.80 3.77 35.69 3.65Q35.57 3.53 35.57 3.34L35.57 3.34Q35.57 3.26 35.60 3.18Q35.62 3.09 35.73 3.01Q35.83 2.92 36.01 2.91L36.01 2.91Q35.67 2.57 35.03 2.57L35.03 2.57Q35.02 2.57 35.01 2.57L35.01 2.57Q34.53 2.57 34.14 3.01Q33.75 3.46 33.75 4.48L33.75 4.48Q33.75 5.01 33.88 5.40Q34.01 5.79 34.22 5.99Q34.44 6.19 34.65 6.29Q34.86 6.38 35.06 6.38L35.06 6.38Q35.98 6.38 36.29 5.40L36.29 5.40Q36.32 5.31 36.41 5.31L36.41 5.31Q36.53 5.31 36.53 5.40L36.53 5.40Q36.53 5.45 36.49 5.56Q36.46 5.68 36.34 5.87Q36.23 6.06 36.07 6.22Q35.91 6.38 35.62 6.50Q35.34 6.62 34.98 6.62L34.98 6.62Q34.16 6.62 33.57 6.00ZM37.68 6.01Q37.06 5.40 37.06 4.51Q37.06 3.63 37.66 2.98Q38.27 2.33 39.13 2.33L39.13 2.33Q39.98 2.33 40.59 2.97Q41.20 3.62 41.20 4.52L41.20 4.52Q41.20 5.40 40.58 6.01Q39.97 6.62 39.12 6.62L39.12 6.62Q38.29 6.62 37.68 6.01ZM37.83 4.44L37.83 4.44Q37.83 5.35 38.07 5.76L38.07 5.76Q38.44 6.38 39.13 6.38L39.13 6.38Q39.48 6.38 39.77 6.19Q40.06 6.01 40.22 5.69L40.22 5.69Q40.42 5.28 40.42 4.44L40.42 4.44Q40.42 3.54 40.18 3.14L40.18 3.14Q39.81 2.54 39.12 2.54L39.12 2.54Q38.82 2.54 38.53 2.70Q38.23 2.85 38.06 3.16L38.06 3.16Q37.83 3.57 37.83 4.44ZM41.77 6.51L41.77 6.51L41.77 6.22Q42.26 6.22 42.38 6.16Q42.49 6.10 42.49 5.80L42.49 5.80L42.49 3.30Q42.49 2.95 42.37 2.87Q42.25 2.78 41.77 2.78L41.77 2.78L41.77 2.49L43.08 2.39L43.08 3.37Q43.52 2.39 44.46 2.39L44.46 2.39Q45.16 2.39 45.44 2.73L45.44 2.73Q45.65 2.97 45.69 3.23Q45.73 3.49 45.73 4.16L45.73 4.16L45.73 5.94Q45.74 6.14 45.89 6.18Q46.04 6.22 46.46 6.22L46.46 6.22L46.46 6.51Q45.51 6.48 45.41 6.48L45.41 6.48Q45.34 6.48 44.36 6.51L44.36 6.51L44.36 6.22Q44.86 6.22 44.97 6.16Q45.09 6.10 45.09 5.80L45.09 5.80L45.09 3.63Q45.09 3.15 44.94 2.87Q44.80 2.59 44.40 2.59L44.40 2.59Q43.91 2.59 43.53 3.00Q43.14 3.40 43.14 4.09L43.14 4.09L43.14 5.80Q43.14 6.10 43.25 6.16Q43.37 6.22 43.86 6.22L43.86 6.22L43.86 6.51Q42.91 6.48 42.82 6.48L42.82 6.48Q42.75 6.48 41.77 6.51ZM47.61 2.78L46.82 2.78L46.82 2.57Q47.25 2.56 47.53 2.25Q47.82 1.95 47.92 1.58Q48.01 1.20 48.02 0.77L48.02 0.77L48.26 0.77L48.26 2.49L49.59 2.49L49.59 2.78L48.26 2.78L48.26 5.37Q48.26 6.38 48.89 6.38L48.89 6.38Q49.15 6.38 49.33 6.10Q49.51 5.83 49.51 5.34L49.51 5.34L49.51 4.82L49.74 4.82L49.74 5.35Q49.74 5.86 49.51 6.24Q49.28 6.62 48.82 6.62L48.82 6.62Q48.65 6.62 48.48 6.57Q48.32 6.53 48.10 6.42Q47.88 6.31 47.75 6.03Q47.61 5.76 47.61 5.35L47.61 5.35L47.61 2.78ZM50.52 6.51L50.52 6.51L50.52 6.22Q51.02 6.22 51.13 6.16Q51.25 6.10 51.25 5.80L51.25 5.80L51.25 3.30Q51.25 2.95 51.13 2.87Q51.01 2.78 50.52 2.78L50.52 2.78L50.52 2.49L51.82 2.39L51.82 3.41Q51.95 3.01 52.23 2.70Q52.51 2.39 52.97 2.39L52.97 2.39Q53.27 2.39 53.46 2.56Q53.66 2.72 53.66 2.96L53.66 2.96Q53.66 3.16 53.53 3.26Q53.41 3.37 53.26 3.37L53.26 3.37Q53.09 3.37 52.97 3.26Q52.85 3.15 52.85 2.97L52.85 2.97Q52.85 2.85 52.91 2.76Q52.96 2.67 53.00 2.64Q53.04 2.61 53.07 2.60L53.07 2.60Q53.05 2.59 52.97 2.59L52.97 2.59Q52.45 2.59 52.16 3.11Q51.87 3.62 51.87 4.35L51.87 4.35L51.87 5.78Q51.87 6.05 51.98 6.14Q52.09 6.22 52.58 6.22L52.58 6.22L52.77 6.22L52.77 6.51Q52.40 6.48 51.59 6.48L51.59 6.48Q51.47 6.48 51.30 6.49Q51.12 6.49 50.89 6.50Q50.65 6.51 50.52 6.51ZM54.78 6.01Q54.17 5.40 54.17 4.51Q54.17 3.63 54.77 2.98Q55.37 2.33 56.24 2.33L56.24 2.33Q57.09 2.33 57.70 2.97Q58.31 3.62 58.31 4.52L58.31 4.52Q58.31 5.40 57.69 6.01Q57.08 6.62 56.23 6.62L56.23 6.62Q55.40 6.62 54.78 6.01ZM54.94 4.44L54.94 4.44Q54.94 5.35 55.18 5.76L55.18 5.76Q55.54 6.38 56.24 6.38L56.24 6.38Q56.59 6.38 56.88 6.19Q57.17 6.01 57.33 5.69L57.33 5.69Q57.53 5.28 57.53 4.44L57.53 4.44Q57.53 3.54 57.28 3.14L57.28 3.14Q56.92 2.54 56.23 2.54L56.23 2.54Q55.93 2.54 55.64 2.70Q55.34 2.85 55.17 3.16L55.17 3.16Q54.94 3.57 54.94 4.44ZM58.88 6.51L58.88 6.51L58.88 6.22Q59.38 6.22 59.49 6.16Q59.61 6.10 59.61 5.80L59.61 5.80L59.61 0.95Q59.61 0.60 59.49 0.51Q59.37 0.43 58.88 0.43L58.88 0.43L58.88 0.14L60.22 0.04L60.22 5.80Q60.22 6.10 60.34 6.16Q60.46 6.22 60.95 6.22L60.95 6.22L60.95 6.51Q60.84 6.51 60.60 6.50Q60.37 6.49 60.19 6.49Q60.02 6.48 59.92 6.48L59.92 6.48Q59.81 6.48 58.88 6.51ZM61.47 6.51L61.47 6.51L61.47 6.22Q61.96 6.22 62.08 6.16Q62.19 6.10 62.19 5.80L62.19 5.80L62.19 0.95Q62.19 0.60 62.07 0.51Q61.95 0.43 61.47 0.43L61.47 0.43L61.47 0.14L62.81 0.04L62.81 5.80Q62.81 6.10 62.93 6.16Q63.04 6.22 63.54 6.22L63.54 6.22L63.54 6.51Q63.42 6.51 63.19 6.50Q62.95 6.49 62.78 6.49Q62.60 6.48 62.50 6.48L62.50 6.48Q62.39 6.48 61.47 6.51ZM64.00 4.46L64.00 4.46Q64.00 3.58 64.57 2.95Q65.13 2.33 65.94 2.33L65.94 2.33Q66.76 2.33 67.19 2.86Q67.62 3.39 67.62 4.16L67.62 4.16Q67.62 4.30 67.58 4.33Q67.54 4.36 67.38 4.36L67.38 4.36L64.78 4.36Q64.78 5.31 65.06 5.76L65.06 5.76Q65.45 6.38 66.11 6.38L66.11 6.38Q66.20 6.38 66.31 6.36Q66.42 6.34 66.65 6.26Q66.87 6.18 67.06 5.97Q67.26 5.76 67.37 5.42L67.37 5.42Q67.40 5.29 67.49 5.29L67.49 5.29Q67.62 5.29 67.62 5.40L67.62 5.40Q67.62 5.48 67.53 5.67Q67.44 5.85 67.27 6.07Q67.10 6.29 66.77 6.45Q66.45 6.62 66.06 6.62L66.06 6.62Q65.24 6.62 64.62 5.99Q64.00 5.37 64.00 4.46ZM64.79 4.16L64.79 4.16L67.00 4.16Q67.00 3.96 66.97 3.75Q66.93 3.53 66.83 3.22Q66.74 2.92 66.51 2.73Q66.28 2.54 65.94 2.54L65.94 2.54Q65.79 2.54 65.63 2.60Q65.47 2.67 65.27 2.82Q65.08 2.98 64.94 3.33Q64.80 3.68 64.79 4.16ZM68.20 4.51L68.20 4.51Q68.20 3.62 68.82 3.00Q69.44 2.39 70.28 2.39L70.28 2.39Q70.99 2.39 71.46 2.97L71.46 2.97L71.46 0.95Q71.46 0.60 71.34 0.51Q71.22 0.43 70.73 0.43L70.73 0.43L70.73 0.14L72.08 0.04L72.08 5.70Q72.08 6.05 72.20 6.14Q72.32 6.22 72.80 6.22L72.80 6.22L72.80 6.51L71.43 6.62L71.43 6.00Q70.95 6.61 70.18 6.62L70.18 6.62Q69.38 6.62 68.79 6.00Q68.20 5.39 68.20 4.51ZM68.98 4.52L68.98 4.52Q68.98 5.38 69.25 5.81L69.25 5.81Q69.62 6.41 70.23 6.41L70.23 6.41Q70.92 6.41 71.33 5.76L71.33 5.76Q71.43 5.60 71.43 5.41L71.43 5.41L71.43 3.50Q71.43 3.31 71.33 3.15L71.33 3.15Q70.95 2.59 70.32 2.59L70.32 2.59Q69.67 2.59 69.27 3.19L69.27 3.19Q68.98 3.64 68.98 4.52Z"
                />
                <path
                    d="M23.98 18.48L23.98 18.48L23.98 17.25Q23.98 17.15 23.98 17.11Q23.99 17.07 24.02 17.05Q24.04 17.02 24.10 17.02L24.10 17.02Q24.16 17.02 24.19 17.05Q24.21 17.07 24.23 17.18L24.23 17.18Q24.37 17.82 24.68 18.16Q24.98 18.50 25.53 18.50L25.53 18.50Q26.05 18.50 26.32 18.27Q26.58 18.04 26.58 17.65L26.58 17.65Q26.58 16.97 25.61 16.80L25.61 16.80Q25.05 16.68 24.82 16.61Q24.59 16.53 24.38 16.36L24.38 16.36Q23.98 16.03 23.98 15.57Q23.98 15.11 24.33 14.76Q24.69 14.42 25.47 14.42L25.47 14.42Q25.99 14.42 26.35 14.69L26.35 14.69Q26.46 14.60 26.51 14.54L26.51 14.54Q26.63 14.42 26.70 14.42L26.70 14.42Q26.77 14.42 26.78 14.47Q26.80 14.52 26.80 14.65L26.80 14.65L26.80 15.59Q26.80 15.69 26.79 15.73Q26.79 15.77 26.76 15.79Q26.73 15.82 26.67 15.82L26.67 15.82Q26.57 15.82 26.56 15.73L26.56 15.73Q26.49 14.60 25.47 14.60L25.47 14.60Q24.92 14.60 24.67 14.81Q24.43 15.02 24.43 15.31L24.43 15.31Q24.43 15.47 24.50 15.59Q24.58 15.71 24.68 15.78Q24.77 15.85 24.96 15.92Q25.14 15.98 25.25 16.01Q25.36 16.03 25.58 16.08L25.58 16.08Q26.32 16.22 26.64 16.52L26.64 16.52Q27.03 16.91 27.03 17.41L27.03 17.41Q27.03 17.96 26.66 18.34Q26.28 18.71 25.53 18.71L25.53 18.71Q24.92 18.71 24.50 18.30L24.50 18.30Q24.45 18.36 24.40 18.41Q24.36 18.45 24.35 18.47Q24.33 18.49 24.33 18.50Q24.32 18.51 24.31 18.52L24.31 18.52Q24.13 18.71 24.08 18.71L24.08 18.71Q24.01 18.71 23.99 18.66Q23.98 18.61 23.98 18.48ZM28.22 18.10Q27.60 17.49 27.60 16.61Q27.60 15.72 28.21 15.07Q28.81 14.42 29.68 14.42L29.68 14.42Q30.52 14.42 31.13 15.07Q31.74 15.71 31.74 16.61L31.74 16.61Q31.74 17.49 31.13 18.10Q30.52 18.71 29.67 18.71L29.67 18.71Q28.84 18.71 28.22 18.10ZM28.38 16.53L28.38 16.53Q28.38 17.44 28.62 17.85L28.62 17.85Q28.98 18.47 29.68 18.47L29.68 18.47Q30.02 18.47 30.31 18.29Q30.60 18.10 30.76 17.78L30.76 17.78Q30.97 17.37 30.97 16.53L30.97 16.53Q30.97 15.63 30.72 15.24L30.72 15.24Q30.36 14.63 29.67 14.63L29.67 14.63Q29.37 14.63 29.07 14.79Q28.78 14.95 28.60 15.26L28.60 15.26Q28.38 15.67 28.38 16.53ZM32.31 14.87L32.31 14.87L32.31 14.58L33.68 14.48L33.68 17.58Q33.68 17.80 33.70 17.93Q33.72 18.06 33.79 18.21Q33.87 18.36 34.05 18.43Q34.22 18.50 34.50 18.50L34.50 18.50Q35.01 18.50 35.32 18.09Q35.63 17.67 35.63 17.06L35.63 17.06L35.63 15.39Q35.63 15.05 35.51 14.96Q35.39 14.87 34.90 14.87L34.90 14.87L34.90 14.58L36.28 14.48L36.28 17.79Q36.28 18.14 36.40 18.23Q36.52 18.32 37.01 18.32L37.01 18.32L37.01 18.61L35.66 18.71L35.66 17.87Q35.27 18.71 34.46 18.71L34.46 18.71Q34.05 18.71 33.77 18.61Q33.49 18.50 33.35 18.37Q33.20 18.24 33.13 17.99Q33.05 17.74 33.04 17.58Q33.04 17.43 33.04 17.13L33.04 17.13L33.04 15.73Q33.04 15.10 32.94 14.98Q32.85 14.87 32.31 14.87ZM37.45 18.61L37.45 18.61L37.45 18.32Q37.94 18.32 38.06 18.26Q38.18 18.20 38.18 17.89L38.18 17.89L38.18 15.39Q38.18 15.05 38.06 14.96Q37.93 14.87 37.45 14.87L37.45 14.87L37.45 14.58L38.75 14.48L38.75 15.51Q38.88 15.11 39.16 14.79Q39.44 14.48 39.89 14.48L39.89 14.48Q40.20 14.48 40.39 14.65Q40.58 14.82 40.58 15.05L40.58 15.05Q40.58 15.26 40.46 15.36Q40.33 15.46 40.18 15.46L40.18 15.46Q40.01 15.46 39.90 15.35Q39.78 15.25 39.78 15.06L39.78 15.06Q39.78 14.95 39.83 14.86Q39.89 14.77 39.93 14.74Q39.97 14.70 39.99 14.70L39.99 14.70Q39.98 14.69 39.89 14.69L39.89 14.69Q39.38 14.69 39.09 15.20Q38.79 15.71 38.79 16.44L38.79 16.44L38.79 17.88Q38.79 18.14 38.90 18.23Q39.01 18.32 39.50 18.32L39.50 18.32L39.70 18.32L39.70 18.61Q39.32 18.58 38.51 18.58L38.51 18.58Q38.40 18.58 38.22 18.58Q38.04 18.59 37.81 18.60Q37.58 18.61 37.45 18.61ZM41.74 18.09Q41.15 17.48 41.15 16.59Q41.15 15.70 41.74 15.06Q42.32 14.42 43.18 14.42L43.18 14.42Q43.75 14.42 44.17 14.69Q44.60 14.96 44.60 15.42L44.60 15.42Q44.60 15.63 44.48 15.75Q44.36 15.86 44.17 15.86L44.17 15.86Q43.98 15.86 43.86 15.74Q43.75 15.62 43.75 15.43L43.75 15.43Q43.75 15.35 43.77 15.27Q43.80 15.19 43.90 15.10Q44.01 15.01 44.18 15.00L44.18 15.00Q43.85 14.66 43.20 14.66L43.20 14.66Q43.19 14.66 43.18 14.66L43.18 14.66Q42.71 14.66 42.32 15.11Q41.93 15.55 41.93 16.57L41.93 16.57Q41.93 17.11 42.06 17.50Q42.19 17.89 42.40 18.09Q42.62 18.29 42.82 18.38Q43.03 18.47 43.24 18.47L43.24 18.47Q44.16 18.47 44.47 17.49L44.47 17.49Q44.49 17.40 44.58 17.40L44.58 17.40Q44.71 17.40 44.71 17.49L44.71 17.49Q44.71 17.54 44.67 17.66Q44.63 17.78 44.52 17.96Q44.41 18.15 44.24 18.31Q44.08 18.47 43.80 18.59Q43.51 18.71 43.16 18.71L43.16 18.71Q42.34 18.71 41.74 18.09ZM45.24 16.55L45.24 16.55Q45.24 15.67 45.80 15.05Q46.37 14.42 47.18 14.42L47.18 14.42Q48.00 14.42 48.42 14.95Q48.85 15.49 48.85 16.25L48.85 16.25Q48.85 16.39 48.81 16.42Q48.78 16.45 48.62 16.45L48.62 16.45L46.01 16.45Q46.01 17.40 46.29 17.85L46.29 17.85Q46.68 18.47 47.35 18.47L47.35 18.47Q47.44 18.47 47.55 18.45Q47.66 18.44 47.88 18.36Q48.10 18.28 48.30 18.06Q48.49 17.85 48.61 17.51L48.61 17.51Q48.64 17.38 48.73 17.38L48.73 17.38Q48.85 17.38 48.85 17.49L48.85 17.49Q48.85 17.58 48.76 17.76Q48.67 17.94 48.50 18.16Q48.33 18.38 48.01 18.55Q47.68 18.71 47.29 18.71L47.29 18.71Q46.47 18.71 45.85 18.09Q45.24 17.47 45.24 16.55ZM46.02 16.25L46.02 16.25L48.23 16.25Q48.23 16.06 48.20 15.84Q48.17 15.62 48.07 15.32Q47.97 15.01 47.74 14.82Q47.51 14.63 47.18 14.63L47.18 14.63Q47.03 14.63 46.86 14.70Q46.70 14.76 46.51 14.91Q46.31 15.07 46.17 15.42Q46.04 15.77 46.02 16.25Z"
                />
            </g>
        </g>
    </g>
    <g style="" class="">
        <use
            xlink:href="#path_american-current-source"
            fill="none"
            stroke="#000"
            style="color: #000;"
            transform="matrix(4.286263797015736e-17,-0.7,0.7,4.286263797015736e-17,668.8311526299213,-220.01225499212597)"
        />
        <line
            x1="680.3149606299213"
            y1="-207.8740157480315"
            x2="680.3149606299213"
            y2="-220.38420699212597"
            fill="none"
            stroke-width="0.5"
            stroke="#000"
        />
        <line
            x1="680.3149606299213"
            y1="-255.11811023622047"
            x2="680.3149606299213"
            y2="-242.60791899212597"
            fill="none"
            stroke-width="0.5"
            stroke="#000"
        />
        <g
            class="pointerNone"
            transform="matrix(1,0,0,1,651.4009537945803,-228.056543586761)"
            fill="#000"
        >
            <g
                transform="matrix(0.013463742937548713,0,0,0.0134619155570641,0,0)"
            >
                <g
                    stroke="currentColor"
                    fill="inherit"
                    stroke-width="0"
                    transform="scale(1,-1)"
                >
                    <g>
                        <g transform="translate(378,-150) scale(0.707)">
                            <use xlink:href="#MJX-283-TEX-N-69" />
                            <use
                                xlink:href="#MJX-283-TEX-N-6E"
                                transform="translate(278,0)"
                            />
                        </g>
                        <use xlink:href="#MJX-283-TEX-I-1D456" />
                    </g>
                </g>
            </g>
        </g>
    </g>
    <g class="">
        <polyline
            points="727.5590551181102,-207.87401574803147 680.3149606299213,-207.87401574803147"
            fill="none"
            stroke-dasharray="0.4pt 0pt"
            stroke-opacity="1"
            stroke-width="0.5333333333333333"
            stroke="#000"
        />
    </g>
    <g class="">
        <polyline
            points="680.3149606299213,-255.11811023622047 680.3149606299213,-264.56692913385837 755.9055118110236,-264.56692913385837"
            fill="none"
            stroke-dasharray="0.4pt 0pt"
            stroke-opacity="1"
            stroke-width="0.5333333333333333"
            stroke="#000"
        />
    </g>
    <g class="">
        <polyline
            points="727.5590551181102,-255.11811023622047 727.5590551181102,-264.56692913385837"
            fill="none"
            stroke-dasharray="0.4pt 0pt"
            stroke-opacity="1"
            stroke-width="0.5333333333333333"
            stroke="#000"
        />
    </g>
    <g class="">
        <use
            xlink:href="#node_circ"
            fill="none"
            stroke="#000"
            style="color: #000;"
            transform="matrix(1,0,0,1,677.9331006299213,-210.25587574803149)"
        />
    </g>
    <g class="">
        <use
            xlink:href="#node_circ"
            fill="none"
            stroke="#000"
            style="color: #000;"
            transform="matrix(1,0,0,1,725.1771951181103,-266.9487891338584)"
        />
    </g>
    <g class="">
        <use
            xlink:href="#node_flowarrow"
            fill="none"
            stroke="#000"
            style="color: #000;"
            transform="matrix(0.8,0,0,0.8,726.2126980157481,-266.89598513385835)"
            class=""
        />
        <g
            class="pointerNone"
            transform="matrix(1,0,0,1,730.4191218354101,-271.1216493140995)"
            fill="#000"
        >
            <g
                transform="matrix(0.013463742937548713,0,0,0.0134619155570641,0,0)"
            >
                <g
                    stroke="currentColor"
                    fill="inherit"
                    stroke-width="0"
                    transform="scale(1,-1)"
                >
                    <g>
                        <g transform="translate(378,-150) scale(0.707)">
                            <use xlink:href="#MJX-296-TEX-N-69" />
                            <use
                                xlink:href="#MJX-296-TEX-N-6E"
                                transform="translate(278,0)"
                            />
                        </g>
                        <use xlink:href="#MJX-296-TEX-I-1D456" />
                    </g>
                </g>
            </g>
        </g>
    </g>
    <g class="">
        <polyline
            points="614.1732283464567,-255.11811023622045 614.1732283464567,-264.56692913385825 557.4803149606299,-264.56692913385825"
            fill="none"
            stroke-dasharray="0.4pt 0pt"
            stroke-opacity="1"
            stroke-width="0.5333333333333333"
            stroke="#000"
        />
    </g>
    <g class="">
        <polyline
            points="831.4960629921259,-264.56692913385837 888.1881496062992,-264.56692913385837 888.1881496062992,-255.8739201574804"
            fill="none"
            stroke-dasharray="0.4pt 0pt"
            stroke-opacity="1"
            stroke-width="0.5333333333333333"
            stroke="#000"
        />
    </g>
</svg>
